%FSLAX44Y44*%
%MOMM*%
%ADD10R,1.2000X1.2000*%
%ADD11C,5.2000*%
%LPD*%
G36*
G01*
X00002000Y00139900D02*
X00062000Y00139900D01*
X00062000Y00170400D01*
X00002000Y00170400D01*
X00002000Y00139900D01*
D02*
G37*
G36*
G01*
X00081850Y00176900D02*
X00121850Y00176900D01*
X00121850Y00221900D01*
X00081850Y00221900D01*
X00081850Y00176900D01*
D02*
G37*
G36*
G01*
X00152000Y00101800D02*
X00202000Y00101800D01*
X00202000Y00119200D01*
X00152000Y00119200D01*
X00152000Y00101800D01*
D02*
G37*
G36*
G01*
X00152000Y00127200D02*
X00202000Y00127200D01*
X00202000Y00144600D01*
X00152000Y00144600D01*
X00152000Y00127200D01*
D02*
G37*
G36*
G01*
X00152000Y00152600D02*
X00202000Y00152600D01*
X00202000Y00170000D01*
X00152000Y00170000D01*
X00152000Y00152600D01*
D02*
G37*
G36*
G01*
X00152000Y00178000D02*
X00202000Y00178000D01*
X00202000Y00195400D01*
X00152000Y00195400D01*
X00152000Y00178000D01*
D02*
G37*
G36*
G01*
X00152000Y00203400D02*
X00202000Y00203400D01*
X00202000Y00220800D01*
X00152000Y00220800D01*
X00152000Y00203400D01*
D02*
G37*
G36*
G01*
X00152000Y00228800D02*
X00202000Y00228800D01*
X00202000Y00246200D01*
X00152000Y00246200D01*
X00152000Y00228800D01*
D02*
G37*
G36*
G01*
X00152000Y00254200D02*
X00202000Y00254200D01*
X00202000Y00271600D01*
X00152000Y00271600D01*
X00152000Y00254200D01*
D02*
G37*
G36*
G01*
X00152000Y00279600D02*
X00202000Y00279600D01*
X00202000Y00297000D01*
X00152000Y00297000D01*
X00152000Y00279600D01*
D02*
G37*
D10*
X00141000Y00115400D03*
D10*
X00141000Y00131400D03*
D11*
X00047000Y00040000D03*
D11*
X00157000Y00040000D03*
D10*
X00125000Y00115400D03*
D10*
X00125000Y00131400D03*
D10*
X00141000Y00140600D03*
D10*
X00141000Y00156600D03*
D10*
X00125000Y00140600D03*
D10*
X00125000Y00156600D03*
D10*
X00141000Y00191400D03*
D10*
X00141000Y00207400D03*
D10*
X00141000Y00242400D03*
D10*
X00141000Y00258400D03*
D10*
X00125000Y00242400D03*
D10*
X00125000Y00258400D03*
D10*
X00141000Y00267600D03*
D10*
X00141000Y00283600D03*
D10*
X00125000Y00267600D03*
D10*
X00125000Y00283600D03*
G36*
G01*
X00002000Y00219400D02*
X00062000Y00219400D01*
X00062000Y00249900D01*
X00002000Y00249900D01*
X00002000Y00219400D01*
D02*
G37*
G36*
G01*
X00002000Y00189900D02*
X00062000Y00189900D01*
X00062000Y00199900D01*
X00002000Y00199900D01*
X00002000Y00189900D01*
D02*
G37*
M02*
