%FSLAX44Y44*%
%MOMM*%
%LPD*%
G36*
G01*
X00187645Y00297096D02*
X00181598Y00297096D01*
X00180940Y00297079D01*
X00180322Y00297026D01*
X00179742Y00296938D01*
X00179201Y00296815D01*
X00178699Y00296657D01*
X00178236Y00296463D01*
X00177811Y00296235D01*
X00177426Y00295971D01*
X00177082Y00295675D01*
X00176785Y00295349D01*
X00176533Y00294994D01*
X00176327Y00294609D01*
X00176167Y00294194D01*
X00176052Y00293750D01*
X00175984Y00293276D01*
X00175961Y00292772D01*
X00175973Y00292381D01*
X00176008Y00292010D01*
X00176066Y00291660D01*
X00176148Y00291330D01*
X00176254Y00291021D01*
X00176383Y00290733D01*
X00176535Y00290465D01*
X00176711Y00290217D01*
X00176909Y00289991D01*
X00177130Y00289787D01*
X00177372Y00289606D01*
X00177637Y00289447D01*
X00177923Y00289310D01*
X00178231Y00289195D01*
X00178562Y00289103D01*
X00178914Y00289034D01*
X00178490Y00288927D01*
X00178090Y00288795D01*
X00177714Y00288638D01*
X00177363Y00288455D01*
X00177036Y00288247D01*
X00176733Y00288013D01*
X00176455Y00287754D01*
X00176201Y00287469D01*
X00175975Y00287163D01*
X00175778Y00286837D01*
X00175612Y00286494D01*
X00175476Y00286132D01*
X00175370Y00285751D01*
X00175295Y00285352D01*
X00175249Y00284935D01*
X00175234Y00284498D01*
X00175259Y00283929D01*
X00175334Y00283393D01*
X00175458Y00282891D01*
X00175633Y00282421D01*
X00175857Y00281985D01*
X00176131Y00281583D01*
X00176455Y00281213D01*
X00176828Y00280877D01*
X00177248Y00280578D01*
X00177709Y00280319D01*
X00178213Y00280099D01*
X00178759Y00279919D01*
X00179347Y00279780D01*
X00179977Y00279680D01*
X00180649Y00279620D01*
X00181363Y00279600D01*
X00187645Y00279600D01*
X00187645Y00297096D01*
D02*
G37*
G36*
G01*
X00171180Y00297096D02*
X00168812Y00297096D01*
X00168812Y00279600D01*
X00171180Y00279600D01*
X00171180Y00297096D01*
D02*
G37*
G36*
G01*
X00159590Y00297096D02*
X00156906Y00297096D01*
X00150238Y00279600D01*
X00152699Y00279600D01*
X00154293Y00284088D01*
X00162180Y00284088D01*
X00163773Y00279600D01*
X00166270Y00279600D01*
X00159590Y00297096D01*
D02*
G37*
G36*
G01*
X00137195Y00294213D02*
X00137530Y00294369D01*
X00137860Y00294515D01*
X00138185Y00294651D01*
X00138505Y00294776D01*
X00138820Y00294891D01*
X00139131Y00294996D01*
X00139437Y00295090D01*
X00139738Y00295174D01*
X00140036Y00295248D01*
X00140331Y00295313D01*
X00140623Y00295367D01*
X00140913Y00295412D01*
X00141200Y00295446D01*
X00141485Y00295471D01*
X00141767Y00295486D01*
X00142047Y00295491D01*
X00142516Y00295479D01*
X00142958Y00295444D01*
X00143373Y00295385D01*
X00143759Y00295303D01*
X00144118Y00295198D01*
X00144450Y00295069D01*
X00144753Y00294916D01*
X00145029Y00294741D01*
X00145275Y00294543D01*
X00145488Y00294326D01*
X00145668Y00294089D01*
X00145816Y00293832D01*
X00145931Y00293556D01*
X00146013Y00293260D01*
X00146062Y00292944D01*
X00146078Y00292608D01*
X00146067Y00292327D01*
X00146035Y00292063D01*
X00145980Y00291818D01*
X00145904Y00291590D01*
X00145806Y00291380D01*
X00145686Y00291187D01*
X00145544Y00291013D01*
X00145381Y00290856D01*
X00145187Y00290711D01*
X00144954Y00290574D01*
X00144682Y00290444D01*
X00144372Y00290321D01*
X00144022Y00290205D01*
X00143633Y00290097D01*
X00143205Y00289995D01*
X00142738Y00289901D01*
X00141309Y00289608D01*
X00140668Y00289470D01*
X00140071Y00289308D01*
X00139518Y00289122D01*
X00139007Y00288912D01*
X00138540Y00288678D01*
X00138117Y00288420D01*
X00137737Y00288138D01*
X00137400Y00287832D01*
X00137105Y00287501D01*
X00136849Y00287143D01*
X00136633Y00286758D01*
X00136456Y00286346D01*
X00136318Y00285907D01*
X00136219Y00285441D01*
X00136160Y00284948D01*
X00136141Y00284428D01*
X00136167Y00283812D01*
X00136247Y00283234D01*
X00136380Y00282694D01*
X00136567Y00282193D01*
X00136807Y00281730D01*
X00137100Y00281306D01*
X00137446Y00280920D01*
X00137846Y00280573D01*
X00138297Y00280265D01*
X00138797Y00279998D01*
X00139348Y00279773D01*
X00139948Y00279588D01*
X00140597Y00279445D01*
X00141297Y00279342D01*
X00142045Y00279281D01*
X00142844Y00279260D01*
X00143157Y00279265D01*
X00143475Y00279278D01*
X00143798Y00279300D01*
X00144125Y00279330D01*
X00144458Y00279370D01*
X00144796Y00279418D01*
X00145139Y00279475D01*
X00145486Y00279541D01*
X00145838Y00279616D01*
X00146193Y00279699D01*
X00146551Y00279790D01*
X00146912Y00279890D01*
X00147276Y00279998D01*
X00147643Y00280115D01*
X00148013Y00280240D01*
X00148387Y00280373D01*
X00148387Y00282811D01*
X00148027Y00282615D01*
X00147670Y00282432D01*
X00147314Y00282261D01*
X00146960Y00282102D01*
X00146608Y00281956D01*
X00146258Y00281822D01*
X00145909Y00281701D01*
X00145562Y00281592D01*
X00145218Y00281496D01*
X00144874Y00281413D01*
X00144532Y00281342D01*
X00144191Y00281285D01*
X00143852Y00281240D01*
X00143515Y00281208D01*
X00143178Y00281188D01*
X00142844Y00281182D01*
X00142351Y00281194D01*
X00141888Y00281232D01*
X00141453Y00281294D01*
X00141048Y00281381D01*
X00140671Y00281493D01*
X00140323Y00281630D01*
X00140005Y00281792D01*
X00139715Y00281979D01*
X00139457Y00282189D01*
X00139233Y00282420D01*
X00139044Y00282672D01*
X00138889Y00282946D01*
X00138768Y00283241D01*
X00138682Y00283557D01*
X00138630Y00283894D01*
X00138613Y00284252D01*
X00138626Y00284566D01*
X00138663Y00284862D01*
X00138725Y00285140D01*
X00138811Y00285401D01*
X00138922Y00285644D01*
X00139058Y00285870D01*
X00139219Y00286078D01*
X00139404Y00286268D01*
X00139618Y00286444D01*
X00139863Y00286609D01*
X00140140Y00286762D01*
X00140449Y00286904D01*
X00140789Y00287034D01*
X00141161Y00287153D01*
X00141565Y00287261D01*
X00142000Y00287358D01*
X00143441Y00287639D01*
X00144081Y00287780D01*
X00144674Y00287940D01*
X00145222Y00288119D01*
X00145724Y00288316D01*
X00146180Y00288532D01*
X00146590Y00288766D01*
X00146955Y00289019D01*
X00147273Y00289291D01*
X00147551Y00289586D01*
X00147791Y00289909D01*
X00147995Y00290259D01*
X00148161Y00290636D01*
X00148291Y00291041D01*
X00148383Y00291473D01*
X00148439Y00291933D01*
X00148457Y00292420D01*
X00148431Y00292985D01*
X00148355Y00293519D01*
X00148227Y00294022D01*
X00148048Y00294495D01*
X00147818Y00294936D01*
X00147537Y00295347D01*
X00147205Y00295727D01*
X00146822Y00296077D01*
X00146394Y00296390D01*
X00145928Y00296661D01*
X00145422Y00296891D01*
X00144878Y00297079D01*
X00144296Y00297225D01*
X00143675Y00297329D01*
X00143015Y00297392D01*
X00142316Y00297412D01*
X00142008Y00297409D01*
X00141698Y00297399D01*
X00141387Y00297381D01*
X00141074Y00297357D01*
X00140760Y00297326D01*
X00140444Y00297287D01*
X00140127Y00297242D01*
X00139809Y00297190D01*
X00139488Y00297131D01*
X00139166Y00297065D01*
X00138842Y00296992D01*
X00138517Y00296912D01*
X00138189Y00296825D01*
X00137860Y00296731D01*
X00137528Y00296630D01*
X00137195Y00296522D01*
X00137195Y00294213D01*
D02*
G37*
G36*
G01*
X00183133Y00178000D02*
X00189812Y00195496D01*
X00187340Y00195496D01*
X00181797Y00180766D01*
X00176242Y00195496D01*
X00173781Y00195496D01*
X00180449Y00178000D01*
X00183133Y00178000D01*
D02*
G37*
G36*
G01*
X00171227Y00195496D02*
X00166363Y00195496D01*
X00165134Y00195463D01*
X00163990Y00195364D01*
X00162930Y00195199D01*
X00161954Y00194967D01*
X00161063Y00194670D01*
X00160257Y00194306D01*
X00159535Y00193877D01*
X00158898Y00193381D01*
X00158341Y00192815D01*
X00157858Y00192174D01*
X00157449Y00191459D01*
X00157114Y00190669D01*
X00156854Y00189805D01*
X00156668Y00188867D01*
X00156557Y00187853D01*
X00156520Y00186766D01*
X00156557Y00185672D01*
X00156669Y00184654D01*
X00156856Y00183711D01*
X00157117Y00182843D01*
X00157453Y00182050D01*
X00157864Y00181332D01*
X00158350Y00180689D01*
X00158910Y00180121D01*
X00159550Y00179624D01*
X00160272Y00179193D01*
X00161079Y00178829D01*
X00161969Y00178530D01*
X00162942Y00178298D01*
X00163999Y00178133D01*
X00165139Y00178033D01*
X00166363Y00178000D01*
X00171227Y00178000D01*
X00171227Y00195496D01*
D02*
G37*
G36*
G01*
X00152746Y00195496D02*
X00147883Y00195496D01*
X00146654Y00195463D01*
X00145509Y00195364D01*
X00144449Y00195199D01*
X00143474Y00194967D01*
X00142583Y00194670D01*
X00141777Y00194306D01*
X00141055Y00193877D01*
X00140418Y00193381D01*
X00139860Y00192815D01*
X00139377Y00192174D01*
X00138968Y00191459D01*
X00138634Y00190669D01*
X00138374Y00189805D01*
X00138188Y00188867D01*
X00138076Y00187853D01*
X00138039Y00186766D01*
X00138076Y00185672D01*
X00138188Y00184654D01*
X00138375Y00183711D01*
X00138637Y00182843D01*
X00138973Y00182050D01*
X00139384Y00181332D01*
X00139869Y00180689D01*
X00140430Y00180121D01*
X00141069Y00179624D01*
X00141792Y00179193D01*
X00142598Y00178829D01*
X00143488Y00178530D01*
X00144462Y00178298D01*
X00145519Y00178133D01*
X00146659Y00178033D01*
X00147883Y00178000D01*
X00152746Y00178000D01*
X00152746Y00195496D01*
D02*
G37*
G36*
G01*
X00175715Y00134395D02*
X00179582Y00134395D01*
X00179582Y00136341D01*
X00173371Y00136341D01*
X00173371Y00128829D01*
X00173718Y00128593D01*
X00174074Y00128372D01*
X00174439Y00128166D01*
X00174812Y00127975D01*
X00175195Y00127798D01*
X00175586Y00127637D01*
X00175986Y00127490D01*
X00176395Y00127358D01*
X00176811Y00127241D01*
X00177235Y00127140D01*
X00177665Y00127055D01*
X00178103Y00126985D01*
X00178547Y00126930D01*
X00178998Y00126891D01*
X00179457Y00126868D01*
X00179922Y00126860D01*
X00180919Y00126898D01*
X00181861Y00127010D01*
X00182747Y00127197D01*
X00183577Y00127459D01*
X00184351Y00127796D01*
X00185069Y00128208D01*
X00185731Y00128695D01*
X00186338Y00129257D01*
X00186880Y00129885D01*
X00187350Y00130572D01*
X00187748Y00131318D01*
X00188074Y00132123D01*
X00188327Y00132987D01*
X00188508Y00133909D01*
X00188616Y00134891D01*
X00188652Y00135930D01*
X00188616Y00136973D01*
X00188508Y00137957D01*
X00188327Y00138881D01*
X00188074Y00139746D01*
X00187748Y00140553D01*
X00187350Y00141299D01*
X00186880Y00141987D01*
X00186338Y00142616D01*
X00185731Y00143178D01*
X00185069Y00143664D01*
X00184351Y00144076D01*
X00183577Y00144413D01*
X00182747Y00144675D01*
X00181861Y00144863D01*
X00180919Y00144975D01*
X00179922Y00145012D01*
X00179497Y00145006D01*
X00179077Y00144986D01*
X00178663Y00144953D01*
X00178253Y00144907D01*
X00177850Y00144848D01*
X00177451Y00144775D01*
X00177058Y00144690D01*
X00176670Y00144591D01*
X00176288Y00144479D01*
X00175914Y00144355D01*
X00175548Y00144218D01*
X00175189Y00144069D01*
X00174837Y00143908D01*
X00174494Y00143734D01*
X00174157Y00143547D01*
X00173828Y00143348D01*
X00173828Y00140829D01*
X00174159Y00141099D01*
X00174495Y00141351D01*
X00174836Y00141586D01*
X00175182Y00141804D01*
X00175533Y00142005D01*
X00175889Y00142189D01*
X00176251Y00142355D01*
X00176617Y00142505D01*
X00176989Y00142637D01*
X00177365Y00142751D01*
X00177746Y00142847D01*
X00178132Y00142927D01*
X00178522Y00142988D01*
X00178918Y00143032D01*
X00179318Y00143058D01*
X00179723Y00143067D01*
X00180500Y00143039D01*
X00181228Y00142955D01*
X00181906Y00142815D01*
X00182534Y00142619D01*
X00183111Y00142367D01*
X00183639Y00142059D01*
X00184117Y00141694D01*
X00184545Y00141274D01*
X00184923Y00140799D01*
X00185250Y00140268D01*
X00185527Y00139682D01*
X00185753Y00139042D01*
X00185930Y00138346D01*
X00186056Y00137596D01*
X00186131Y00136791D01*
X00186156Y00135930D01*
X00186131Y00135073D01*
X00186056Y00134270D01*
X00185930Y00133522D01*
X00185753Y00132828D01*
X00185527Y00132189D01*
X00185250Y00131604D01*
X00184923Y00131074D01*
X00184545Y00130598D01*
X00184117Y00130178D01*
X00183639Y00129814D01*
X00183111Y00129506D01*
X00182534Y00129254D01*
X00181906Y00129058D01*
X00181228Y00128918D01*
X00180500Y00128833D01*
X00179723Y00128805D01*
X00179413Y00128809D01*
X00179113Y00128819D01*
X00178820Y00128836D01*
X00178536Y00128860D01*
X00178261Y00128890D01*
X00177993Y00128927D01*
X00177735Y00128971D01*
X00177484Y00129022D01*
X00177241Y00129080D01*
X00177005Y00129146D01*
X00176774Y00129219D01*
X00176550Y00129299D01*
X00176332Y00129387D01*
X00176120Y00129483D01*
X00175914Y00129586D01*
X00175715Y00129696D01*
X00175715Y00134395D01*
D02*
G37*
G36*
G01*
X00169047Y00144696D02*
X00165859Y00144696D01*
X00158102Y00130059D01*
X00158102Y00144696D01*
X00155805Y00144696D01*
X00155805Y00127200D01*
X00158992Y00127200D01*
X00166750Y00141837D01*
X00166750Y00127200D01*
X00169047Y00127200D01*
X00169047Y00144696D01*
D02*
G37*
G36*
G01*
X00151094Y00144696D02*
X00146230Y00144696D01*
X00145001Y00144663D01*
X00143857Y00144564D01*
X00142797Y00144399D01*
X00141821Y00144167D01*
X00140930Y00143870D01*
X00140124Y00143506D01*
X00139403Y00143077D01*
X00138766Y00142581D01*
X00138208Y00142015D01*
X00137725Y00141374D01*
X00137316Y00140659D01*
X00136981Y00139869D01*
X00136721Y00139005D01*
X00136535Y00138067D01*
X00136424Y00137053D01*
X00136387Y00135966D01*
X00136424Y00134872D01*
X00136536Y00133854D01*
X00136723Y00132911D01*
X00136984Y00132043D01*
X00137321Y00131250D01*
X00137731Y00130532D01*
X00138217Y00129889D01*
X00138777Y00129321D01*
X00139417Y00128824D01*
X00140140Y00128393D01*
X00140946Y00128029D01*
X00141836Y00127730D01*
X00142809Y00127498D01*
X00143866Y00127333D01*
X00145007Y00127233D01*
X00146230Y00127200D01*
X00151094Y00127200D01*
X00151094Y00144696D01*
D02*
G37*
G36*
G01*
X00183133Y00152600D02*
X00189812Y00170096D01*
X00187340Y00170096D01*
X00181797Y00155366D01*
X00176242Y00170096D01*
X00173781Y00170096D01*
X00180449Y00152600D01*
X00183133Y00152600D01*
D02*
G37*
G36*
G01*
X00171227Y00170096D02*
X00166363Y00170096D01*
X00165134Y00170063D01*
X00163990Y00169964D01*
X00162930Y00169799D01*
X00161954Y00169567D01*
X00161063Y00169270D01*
X00160257Y00168906D01*
X00159535Y00168477D01*
X00158898Y00167981D01*
X00158341Y00167415D01*
X00157858Y00166774D01*
X00157449Y00166059D01*
X00157114Y00165269D01*
X00156854Y00164405D01*
X00156668Y00163467D01*
X00156557Y00162453D01*
X00156520Y00161366D01*
X00156557Y00160272D01*
X00156669Y00159254D01*
X00156856Y00158311D01*
X00157117Y00157443D01*
X00157453Y00156650D01*
X00157864Y00155932D01*
X00158350Y00155289D01*
X00158910Y00154721D01*
X00159550Y00154224D01*
X00160272Y00153793D01*
X00161079Y00153429D01*
X00161969Y00153130D01*
X00162942Y00152898D01*
X00163999Y00152733D01*
X00165139Y00152633D01*
X00166363Y00152600D01*
X00171227Y00152600D01*
X00171227Y00170096D01*
D02*
G37*
G36*
G01*
X00152746Y00170096D02*
X00147883Y00170096D01*
X00146654Y00170063D01*
X00145509Y00169964D01*
X00144449Y00169799D01*
X00143474Y00169567D01*
X00142583Y00169270D01*
X00141777Y00168906D01*
X00141055Y00168477D01*
X00140418Y00167981D01*
X00139860Y00167415D01*
X00139377Y00166774D01*
X00138968Y00166059D01*
X00138634Y00165269D01*
X00138374Y00164405D01*
X00138188Y00163467D01*
X00138076Y00162453D01*
X00138039Y00161366D01*
X00138076Y00160272D01*
X00138188Y00159254D01*
X00138375Y00158311D01*
X00138637Y00157443D01*
X00138973Y00156650D01*
X00139384Y00155932D01*
X00139869Y00155289D01*
X00140430Y00154721D01*
X00141069Y00154224D01*
X00141792Y00153793D01*
X00142598Y00153429D01*
X00143488Y00153130D01*
X00144462Y00152898D01*
X00145519Y00152733D01*
X00146659Y00152633D01*
X00147883Y00152600D01*
X00152746Y00152600D01*
X00152746Y00170096D01*
D02*
G37*
G36*
G01*
X00130176Y00170096D02*
X00127492Y00170096D01*
X00120824Y00152600D01*
X00123285Y00152600D01*
X00124879Y00157088D01*
X00132766Y00157088D01*
X00134359Y00152600D01*
X00136855Y00152600D01*
X00130176Y00170096D01*
D02*
G37*
G36*
G01*
X00183133Y00101800D02*
X00189812Y00119296D01*
X00187340Y00119296D01*
X00181797Y00104566D01*
X00176242Y00119296D01*
X00173781Y00119296D01*
X00180449Y00101800D01*
X00183133Y00101800D01*
D02*
G37*
G36*
G01*
X00171227Y00119296D02*
X00166363Y00119296D01*
X00165134Y00119263D01*
X00163990Y00119164D01*
X00162930Y00118999D01*
X00161954Y00118767D01*
X00161063Y00118470D01*
X00160257Y00118106D01*
X00159535Y00117677D01*
X00158898Y00117181D01*
X00158341Y00116615D01*
X00157858Y00115974D01*
X00157449Y00115259D01*
X00157114Y00114469D01*
X00156854Y00113605D01*
X00156668Y00112667D01*
X00156557Y00111653D01*
X00156520Y00110566D01*
X00156557Y00109472D01*
X00156669Y00108454D01*
X00156856Y00107511D01*
X00157117Y00106643D01*
X00157453Y00105850D01*
X00157864Y00105132D01*
X00158350Y00104489D01*
X00158910Y00103921D01*
X00159550Y00103424D01*
X00160272Y00102993D01*
X00161079Y00102629D01*
X00161969Y00102330D01*
X00162942Y00102098D01*
X00163999Y00101933D01*
X00165139Y00101833D01*
X00166363Y00101800D01*
X00171227Y00101800D01*
X00171227Y00119296D01*
D02*
G37*
G36*
G01*
X00152746Y00119296D02*
X00147883Y00119296D01*
X00146654Y00119263D01*
X00145509Y00119164D01*
X00144449Y00118999D01*
X00143474Y00118767D01*
X00142583Y00118470D01*
X00141777Y00118106D01*
X00141055Y00117677D01*
X00140418Y00117181D01*
X00139860Y00116615D01*
X00139377Y00115974D01*
X00138968Y00115259D01*
X00138634Y00114469D01*
X00138374Y00113605D01*
X00138188Y00112667D01*
X00138076Y00111653D01*
X00138039Y00110566D01*
X00138076Y00109472D01*
X00138188Y00108454D01*
X00138375Y00107511D01*
X00138637Y00106643D01*
X00138973Y00105850D01*
X00139384Y00105132D01*
X00139869Y00104489D01*
X00140430Y00103921D01*
X00141069Y00103424D01*
X00141792Y00102993D01*
X00142598Y00102629D01*
X00143488Y00102330D01*
X00144462Y00102098D01*
X00145519Y00101933D01*
X00146659Y00101833D01*
X00147883Y00101800D01*
X00152746Y00101800D01*
X00152746Y00119296D01*
D02*
G37*
G36*
G01*
X00134266Y00119296D02*
X00129402Y00119296D01*
X00128173Y00119263D01*
X00127029Y00119164D01*
X00125969Y00118999D01*
X00124993Y00118767D01*
X00124102Y00118470D01*
X00123296Y00118106D01*
X00122575Y00117677D01*
X00121938Y00117181D01*
X00121380Y00116615D01*
X00120897Y00115974D01*
X00120488Y00115259D01*
X00120153Y00114469D01*
X00119893Y00113605D01*
X00119707Y00112667D01*
X00119596Y00111653D01*
X00119559Y00110566D01*
X00119596Y00109472D01*
X00119708Y00108454D01*
X00119895Y00107511D01*
X00120156Y00106643D01*
X00120492Y00105850D01*
X00120903Y00105132D01*
X00121389Y00104489D01*
X00121949Y00103921D01*
X00122589Y00103424D01*
X00123312Y00102993D01*
X00124118Y00102629D01*
X00125008Y00102330D01*
X00125981Y00102098D01*
X00127038Y00101933D01*
X00128178Y00101833D01*
X00129402Y00101800D01*
X00134266Y00101800D01*
X00134266Y00119296D01*
D02*
G37*
G36*
G01*
X00183133Y00228800D02*
X00189812Y00246296D01*
X00187340Y00246296D01*
X00181797Y00231566D01*
X00176242Y00246296D01*
X00173781Y00246296D01*
X00180449Y00228800D01*
X00183133Y00228800D01*
D02*
G37*
G36*
G01*
X00171227Y00246296D02*
X00166363Y00246296D01*
X00165134Y00246263D01*
X00163990Y00246164D01*
X00162930Y00245999D01*
X00161954Y00245767D01*
X00161063Y00245470D01*
X00160257Y00245106D01*
X00159535Y00244677D01*
X00158898Y00244181D01*
X00158341Y00243615D01*
X00157858Y00242974D01*
X00157449Y00242259D01*
X00157114Y00241469D01*
X00156854Y00240605D01*
X00156668Y00239667D01*
X00156557Y00238653D01*
X00156520Y00237566D01*
X00156557Y00236472D01*
X00156669Y00235454D01*
X00156856Y00234511D01*
X00157117Y00233643D01*
X00157453Y00232850D01*
X00157864Y00232132D01*
X00158350Y00231489D01*
X00158910Y00230921D01*
X00159550Y00230424D01*
X00160272Y00229993D01*
X00161079Y00229629D01*
X00161969Y00229330D01*
X00162942Y00229098D01*
X00163999Y00228933D01*
X00165139Y00228833D01*
X00166363Y00228800D01*
X00171227Y00228800D01*
X00171227Y00246296D01*
D02*
G37*
G36*
G01*
X00152746Y00246296D02*
X00147883Y00246296D01*
X00146654Y00246263D01*
X00145509Y00246164D01*
X00144449Y00245999D01*
X00143474Y00245767D01*
X00142583Y00245470D01*
X00141777Y00245106D01*
X00141055Y00244677D01*
X00140418Y00244181D01*
X00139860Y00243615D01*
X00139377Y00242974D01*
X00138968Y00242259D01*
X00138634Y00241469D01*
X00138374Y00240605D01*
X00138188Y00239667D01*
X00138076Y00238653D01*
X00138039Y00237566D01*
X00138076Y00236472D01*
X00138188Y00235454D01*
X00138375Y00234511D01*
X00138637Y00233643D01*
X00138973Y00232850D01*
X00139384Y00232132D01*
X00139869Y00231489D01*
X00140430Y00230921D01*
X00141069Y00230424D01*
X00141792Y00229993D01*
X00142598Y00229629D01*
X00143488Y00229330D01*
X00144462Y00229098D01*
X00145519Y00228933D01*
X00146659Y00228833D01*
X00147883Y00228800D01*
X00152746Y00228800D01*
X00152746Y00246296D01*
D02*
G37*
G36*
G01*
X00175715Y00210595D02*
X00179582Y00210595D01*
X00179582Y00212541D01*
X00173371Y00212541D01*
X00173371Y00205029D01*
X00173718Y00204793D01*
X00174074Y00204572D01*
X00174439Y00204366D01*
X00174812Y00204175D01*
X00175195Y00203998D01*
X00175586Y00203837D01*
X00175986Y00203690D01*
X00176395Y00203558D01*
X00176811Y00203441D01*
X00177235Y00203340D01*
X00177665Y00203255D01*
X00178103Y00203185D01*
X00178547Y00203130D01*
X00178998Y00203091D01*
X00179457Y00203068D01*
X00179922Y00203060D01*
X00180919Y00203098D01*
X00181861Y00203210D01*
X00182747Y00203397D01*
X00183577Y00203659D01*
X00184351Y00203996D01*
X00185069Y00204408D01*
X00185731Y00204895D01*
X00186338Y00205457D01*
X00186880Y00206085D01*
X00187350Y00206772D01*
X00187748Y00207518D01*
X00188074Y00208323D01*
X00188327Y00209187D01*
X00188508Y00210109D01*
X00188616Y00211091D01*
X00188652Y00212130D01*
X00188616Y00213173D01*
X00188508Y00214157D01*
X00188327Y00215081D01*
X00188074Y00215946D01*
X00187748Y00216753D01*
X00187350Y00217499D01*
X00186880Y00218187D01*
X00186338Y00218816D01*
X00185731Y00219378D01*
X00185069Y00219864D01*
X00184351Y00220276D01*
X00183577Y00220613D01*
X00182747Y00220875D01*
X00181861Y00221063D01*
X00180919Y00221175D01*
X00179922Y00221212D01*
X00179497Y00221206D01*
X00179077Y00221186D01*
X00178663Y00221153D01*
X00178253Y00221107D01*
X00177850Y00221048D01*
X00177451Y00220975D01*
X00177058Y00220890D01*
X00176670Y00220791D01*
X00176288Y00220679D01*
X00175914Y00220555D01*
X00175548Y00220418D01*
X00175189Y00220269D01*
X00174837Y00220108D01*
X00174494Y00219934D01*
X00174157Y00219747D01*
X00173828Y00219548D01*
X00173828Y00217029D01*
X00174159Y00217299D01*
X00174495Y00217551D01*
X00174836Y00217786D01*
X00175182Y00218004D01*
X00175533Y00218205D01*
X00175889Y00218389D01*
X00176251Y00218555D01*
X00176617Y00218705D01*
X00176989Y00218837D01*
X00177365Y00218951D01*
X00177746Y00219047D01*
X00178132Y00219127D01*
X00178522Y00219188D01*
X00178918Y00219232D01*
X00179318Y00219258D01*
X00179723Y00219267D01*
X00180500Y00219239D01*
X00181228Y00219155D01*
X00181906Y00219015D01*
X00182534Y00218819D01*
X00183111Y00218567D01*
X00183639Y00218259D01*
X00184117Y00217894D01*
X00184545Y00217474D01*
X00184923Y00216999D01*
X00185250Y00216468D01*
X00185527Y00215882D01*
X00185753Y00215242D01*
X00185930Y00214546D01*
X00186056Y00213796D01*
X00186131Y00212991D01*
X00186156Y00212130D01*
X00186131Y00211273D01*
X00186056Y00210470D01*
X00185930Y00209722D01*
X00185753Y00209028D01*
X00185527Y00208389D01*
X00185250Y00207804D01*
X00184923Y00207274D01*
X00184545Y00206798D01*
X00184117Y00206378D01*
X00183639Y00206014D01*
X00183111Y00205706D01*
X00182534Y00205454D01*
X00181906Y00205258D01*
X00181228Y00205118D01*
X00180500Y00205033D01*
X00179723Y00205005D01*
X00179413Y00205009D01*
X00179113Y00205019D01*
X00178820Y00205036D01*
X00178536Y00205060D01*
X00178261Y00205090D01*
X00177993Y00205127D01*
X00177735Y00205171D01*
X00177484Y00205222D01*
X00177241Y00205280D01*
X00177005Y00205346D01*
X00176774Y00205419D01*
X00176550Y00205499D01*
X00176332Y00205587D01*
X00176120Y00205683D01*
X00175914Y00205786D01*
X00175715Y00205896D01*
X00175715Y00210595D01*
D02*
G37*
G36*
G01*
X00169047Y00220896D02*
X00165859Y00220896D01*
X00158102Y00206259D01*
X00158102Y00220896D01*
X00155805Y00220896D01*
X00155805Y00203400D01*
X00158992Y00203400D01*
X00166750Y00218037D01*
X00166750Y00203400D01*
X00169047Y00203400D01*
X00169047Y00220896D01*
D02*
G37*
G36*
G01*
X00151094Y00220896D02*
X00146230Y00220896D01*
X00145001Y00220863D01*
X00143857Y00220764D01*
X00142797Y00220599D01*
X00141821Y00220367D01*
X00140930Y00220070D01*
X00140124Y00219706D01*
X00139403Y00219277D01*
X00138766Y00218781D01*
X00138208Y00218215D01*
X00137725Y00217574D01*
X00137316Y00216859D01*
X00136981Y00216069D01*
X00136721Y00215205D01*
X00136535Y00214267D01*
X00136424Y00213253D01*
X00136387Y00212166D01*
X00136424Y00211072D01*
X00136536Y00210054D01*
X00136723Y00209111D01*
X00136984Y00208243D01*
X00137321Y00207450D01*
X00137731Y00206732D01*
X00138217Y00206089D01*
X00138777Y00205521D01*
X00139417Y00205024D01*
X00140140Y00204593D01*
X00140946Y00204229D01*
X00141836Y00203930D01*
X00142809Y00203698D01*
X00143866Y00203533D01*
X00145007Y00203433D01*
X00146230Y00203400D01*
X00151094Y00203400D01*
X00151094Y00220896D01*
D02*
G37*
G36*
G01*
X00175715Y00261395D02*
X00179582Y00261395D01*
X00179582Y00263341D01*
X00173371Y00263341D01*
X00173371Y00255829D01*
X00173718Y00255593D01*
X00174074Y00255372D01*
X00174439Y00255166D01*
X00174812Y00254975D01*
X00175195Y00254798D01*
X00175586Y00254637D01*
X00175986Y00254490D01*
X00176395Y00254358D01*
X00176811Y00254241D01*
X00177235Y00254140D01*
X00177665Y00254055D01*
X00178103Y00253985D01*
X00178547Y00253930D01*
X00178998Y00253891D01*
X00179457Y00253868D01*
X00179922Y00253860D01*
X00180919Y00253898D01*
X00181861Y00254010D01*
X00182747Y00254197D01*
X00183577Y00254459D01*
X00184351Y00254796D01*
X00185069Y00255208D01*
X00185731Y00255695D01*
X00186338Y00256257D01*
X00186880Y00256885D01*
X00187350Y00257572D01*
X00187748Y00258318D01*
X00188074Y00259123D01*
X00188327Y00259987D01*
X00188508Y00260909D01*
X00188616Y00261891D01*
X00188652Y00262930D01*
X00188616Y00263973D01*
X00188508Y00264957D01*
X00188327Y00265881D01*
X00188074Y00266746D01*
X00187748Y00267553D01*
X00187350Y00268299D01*
X00186880Y00268987D01*
X00186338Y00269616D01*
X00185731Y00270178D01*
X00185069Y00270664D01*
X00184351Y00271076D01*
X00183577Y00271413D01*
X00182747Y00271675D01*
X00181861Y00271863D01*
X00180919Y00271975D01*
X00179922Y00272012D01*
X00179497Y00272006D01*
X00179077Y00271986D01*
X00178663Y00271953D01*
X00178253Y00271907D01*
X00177850Y00271848D01*
X00177451Y00271775D01*
X00177058Y00271690D01*
X00176670Y00271591D01*
X00176288Y00271479D01*
X00175914Y00271355D01*
X00175548Y00271218D01*
X00175189Y00271069D01*
X00174837Y00270908D01*
X00174494Y00270734D01*
X00174157Y00270547D01*
X00173828Y00270348D01*
X00173828Y00267829D01*
X00174159Y00268099D01*
X00174495Y00268351D01*
X00174836Y00268586D01*
X00175182Y00268804D01*
X00175533Y00269005D01*
X00175889Y00269189D01*
X00176251Y00269355D01*
X00176617Y00269505D01*
X00176989Y00269637D01*
X00177365Y00269751D01*
X00177746Y00269847D01*
X00178132Y00269927D01*
X00178522Y00269988D01*
X00178918Y00270032D01*
X00179318Y00270058D01*
X00179723Y00270067D01*
X00180500Y00270039D01*
X00181228Y00269955D01*
X00181906Y00269815D01*
X00182534Y00269619D01*
X00183111Y00269367D01*
X00183639Y00269059D01*
X00184117Y00268694D01*
X00184545Y00268274D01*
X00184923Y00267799D01*
X00185250Y00267268D01*
X00185527Y00266682D01*
X00185753Y00266042D01*
X00185930Y00265346D01*
X00186056Y00264596D01*
X00186131Y00263791D01*
X00186156Y00262930D01*
X00186131Y00262073D01*
X00186056Y00261270D01*
X00185930Y00260522D01*
X00185753Y00259828D01*
X00185527Y00259189D01*
X00185250Y00258604D01*
X00184923Y00258074D01*
X00184545Y00257598D01*
X00184117Y00257178D01*
X00183639Y00256814D01*
X00183111Y00256506D01*
X00182534Y00256254D01*
X00181906Y00256058D01*
X00181228Y00255918D01*
X00180500Y00255833D01*
X00179723Y00255805D01*
X00179413Y00255809D01*
X00179113Y00255819D01*
X00178820Y00255836D01*
X00178536Y00255860D01*
X00178261Y00255890D01*
X00177993Y00255927D01*
X00177735Y00255971D01*
X00177484Y00256022D01*
X00177241Y00256080D01*
X00177005Y00256146D01*
X00176774Y00256219D01*
X00176550Y00256299D01*
X00176332Y00256387D01*
X00176120Y00256483D01*
X00175914Y00256586D01*
X00175715Y00256696D01*
X00175715Y00261395D01*
D02*
G37*
G36*
G01*
X00169047Y00271696D02*
X00165859Y00271696D01*
X00158102Y00257059D01*
X00158102Y00271696D01*
X00155805Y00271696D01*
X00155805Y00254200D01*
X00158992Y00254200D01*
X00166750Y00268837D01*
X00166750Y00254200D01*
X00169047Y00254200D01*
X00169047Y00271696D01*
D02*
G37*
G36*
G01*
X00151094Y00271696D02*
X00146230Y00271696D01*
X00145001Y00271663D01*
X00143857Y00271564D01*
X00142797Y00271399D01*
X00141821Y00271167D01*
X00140930Y00270870D01*
X00140124Y00270506D01*
X00139403Y00270077D01*
X00138766Y00269581D01*
X00138208Y00269015D01*
X00137725Y00268374D01*
X00137316Y00267659D01*
X00136981Y00266869D01*
X00136721Y00266005D01*
X00136535Y00265067D01*
X00136424Y00264053D01*
X00136387Y00262966D01*
X00136424Y00261872D01*
X00136536Y00260854D01*
X00136723Y00259911D01*
X00136984Y00259043D01*
X00137321Y00258250D01*
X00137731Y00257532D01*
X00138217Y00256889D01*
X00138777Y00256321D01*
X00139417Y00255824D01*
X00140140Y00255393D01*
X00140946Y00255029D01*
X00141836Y00254730D01*
X00142809Y00254498D01*
X00143866Y00254333D01*
X00145007Y00254233D01*
X00146230Y00254200D01*
X00151094Y00254200D01*
X00151094Y00271696D01*
D02*
G37*
G36*
G01*
X00010000Y00080000D02*
X00070000Y00080000D01*
X00070000Y00120000D01*
X00010000Y00120000D01*
X00010000Y00080000D01*
D02*
G37*
G36*
G01*
X00010000Y00080000D02*
X00070000Y00080000D01*
X00070000Y00120000D01*
X00010000Y00120000D01*
X00010000Y00080000D01*
D02*
G37*
%LPC*%
G36*
G01*
X00185277Y00287955D02*
X00185277Y00281545D01*
X00181480Y00281545D01*
X00181018Y00281558D01*
X00180587Y00281595D01*
X00180187Y00281657D01*
X00179818Y00281743D01*
X00179480Y00281854D01*
X00179172Y00281990D01*
X00178896Y00282151D01*
X00178650Y00282336D01*
X00178435Y00282547D01*
X00178248Y00282784D01*
X00178090Y00283047D01*
X00177960Y00283337D01*
X00177860Y00283652D01*
X00177788Y00283994D01*
X00177745Y00284362D01*
X00177730Y00284756D01*
X00177745Y00285153D01*
X00177788Y00285523D01*
X00177860Y00285866D01*
X00177960Y00286182D01*
X00178090Y00286471D01*
X00178248Y00286733D01*
X00178435Y00286968D01*
X00178650Y00287176D01*
X00178896Y00287359D01*
X00179172Y00287517D01*
X00179480Y00287651D01*
X00179818Y00287761D01*
X00180187Y00287846D01*
X00180587Y00287907D01*
X00181018Y00287943D01*
X00181480Y00287955D01*
X00185277Y00287955D01*
D02*
G37*
G36*
G01*
X00185277Y00295151D02*
X00185277Y00289877D01*
X00181773Y00289877D01*
X00181354Y00289888D01*
X00180962Y00289918D01*
X00180597Y00289969D01*
X00180260Y00290040D01*
X00179951Y00290131D01*
X00179670Y00290243D01*
X00179416Y00290375D01*
X00179189Y00290528D01*
X00178990Y00290701D01*
X00178818Y00290896D01*
X00178672Y00291112D01*
X00178552Y00291350D01*
X00178459Y00291609D01*
X00178393Y00291889D01*
X00178353Y00292191D01*
X00178340Y00292514D01*
X00178353Y00292835D01*
X00178393Y00293134D01*
X00178459Y00293413D01*
X00178552Y00293671D01*
X00178672Y00293908D01*
X00178818Y00294125D01*
X00178990Y00294320D01*
X00179189Y00294495D01*
X00179416Y00294648D01*
X00179670Y00294782D01*
X00179951Y00294894D01*
X00180260Y00294987D01*
X00180597Y00295058D01*
X00180962Y00295110D01*
X00181354Y00295141D01*
X00181773Y00295151D01*
X00185277Y00295151D01*
D02*
G37*
G36*
G01*
X00158254Y00294764D02*
X00161465Y00286057D01*
X00155031Y00286057D01*
X00158254Y00294764D01*
D02*
G37*
G36*
G01*
X00168859Y00193551D02*
X00168859Y00179945D01*
X00166000Y00179945D01*
X00165125Y00179971D01*
X00164311Y00180048D01*
X00163557Y00180176D01*
X00162864Y00180355D01*
X00162231Y00180586D01*
X00161659Y00180868D01*
X00161148Y00181201D01*
X00160697Y00181586D01*
X00160303Y00182026D01*
X00159962Y00182525D01*
X00159673Y00183083D01*
X00159436Y00183701D01*
X00159252Y00184378D01*
X00159121Y00185115D01*
X00159042Y00185911D01*
X00159016Y00186766D01*
X00159042Y00187615D01*
X00159121Y00188406D01*
X00159252Y00189138D01*
X00159436Y00189811D01*
X00159673Y00190425D01*
X00159962Y00190981D01*
X00160303Y00191478D01*
X00160697Y00191916D01*
X00161148Y00192299D01*
X00161659Y00192631D01*
X00162231Y00192912D01*
X00162864Y00193142D01*
X00163557Y00193321D01*
X00164311Y00193449D01*
X00165125Y00193525D01*
X00166000Y00193551D01*
X00168859Y00193551D01*
D02*
G37*
G36*
G01*
X00150379Y00193551D02*
X00150379Y00179945D01*
X00147520Y00179945D01*
X00146645Y00179971D01*
X00145830Y00180048D01*
X00145076Y00180176D01*
X00144383Y00180355D01*
X00143751Y00180586D01*
X00143179Y00180868D01*
X00142668Y00181201D01*
X00142217Y00181586D01*
X00141823Y00182026D01*
X00141481Y00182525D01*
X00141192Y00183083D01*
X00140956Y00183701D01*
X00140772Y00184378D01*
X00140640Y00185115D01*
X00140561Y00185911D01*
X00140535Y00186766D01*
X00140561Y00187615D01*
X00140640Y00188406D01*
X00140772Y00189138D01*
X00140956Y00189811D01*
X00141192Y00190425D01*
X00141481Y00190981D01*
X00141823Y00191478D01*
X00142217Y00191916D01*
X00142668Y00192299D01*
X00143179Y00192631D01*
X00143751Y00192912D01*
X00144383Y00193142D01*
X00145076Y00193321D01*
X00145830Y00193449D01*
X00146645Y00193525D01*
X00147520Y00193551D01*
X00150379Y00193551D01*
D02*
G37*
G36*
G01*
X00148727Y00142751D02*
X00148727Y00129145D01*
X00145867Y00129145D01*
X00144992Y00129171D01*
X00144178Y00129248D01*
X00143424Y00129376D01*
X00142731Y00129555D01*
X00142098Y00129786D01*
X00141526Y00130068D01*
X00141015Y00130401D01*
X00140564Y00130786D01*
X00140170Y00131226D01*
X00139829Y00131725D01*
X00139540Y00132283D01*
X00139303Y00132901D01*
X00139119Y00133578D01*
X00138988Y00134315D01*
X00138909Y00135111D01*
X00138883Y00135966D01*
X00138909Y00136815D01*
X00138988Y00137606D01*
X00139119Y00138338D01*
X00139303Y00139011D01*
X00139540Y00139625D01*
X00139829Y00140181D01*
X00140170Y00140678D01*
X00140564Y00141116D01*
X00141015Y00141499D01*
X00141526Y00141831D01*
X00142098Y00142112D01*
X00142731Y00142342D01*
X00143424Y00142521D01*
X00144178Y00142649D01*
X00144992Y00142725D01*
X00145867Y00142751D01*
X00148727Y00142751D01*
D02*
G37*
G36*
G01*
X00168859Y00168151D02*
X00168859Y00154545D01*
X00166000Y00154545D01*
X00165125Y00154571D01*
X00164311Y00154648D01*
X00163557Y00154776D01*
X00162864Y00154955D01*
X00162231Y00155186D01*
X00161659Y00155468D01*
X00161148Y00155801D01*
X00160697Y00156186D01*
X00160303Y00156626D01*
X00159962Y00157125D01*
X00159673Y00157683D01*
X00159436Y00158301D01*
X00159252Y00158978D01*
X00159121Y00159715D01*
X00159042Y00160511D01*
X00159016Y00161366D01*
X00159042Y00162215D01*
X00159121Y00163006D01*
X00159252Y00163738D01*
X00159436Y00164411D01*
X00159673Y00165025D01*
X00159962Y00165581D01*
X00160303Y00166078D01*
X00160697Y00166516D01*
X00161148Y00166899D01*
X00161659Y00167231D01*
X00162231Y00167512D01*
X00162864Y00167742D01*
X00163557Y00167921D01*
X00164311Y00168049D01*
X00165125Y00168125D01*
X00166000Y00168151D01*
X00168859Y00168151D01*
D02*
G37*
G36*
G01*
X00150379Y00168151D02*
X00150379Y00154545D01*
X00147520Y00154545D01*
X00146645Y00154571D01*
X00145830Y00154648D01*
X00145076Y00154776D01*
X00144383Y00154955D01*
X00143751Y00155186D01*
X00143179Y00155468D01*
X00142668Y00155801D01*
X00142217Y00156186D01*
X00141823Y00156626D01*
X00141481Y00157125D01*
X00141192Y00157683D01*
X00140956Y00158301D01*
X00140772Y00158978D01*
X00140640Y00159715D01*
X00140561Y00160511D01*
X00140535Y00161366D01*
X00140561Y00162215D01*
X00140640Y00163006D01*
X00140772Y00163738D01*
X00140956Y00164411D01*
X00141192Y00165025D01*
X00141481Y00165581D01*
X00141823Y00166078D01*
X00142217Y00166516D01*
X00142668Y00166899D01*
X00143179Y00167231D01*
X00143751Y00167512D01*
X00144383Y00167742D01*
X00145076Y00167921D01*
X00145830Y00168049D01*
X00146645Y00168125D01*
X00147520Y00168151D01*
X00150379Y00168151D01*
D02*
G37*
G36*
G01*
X00128840Y00167764D02*
X00132051Y00159057D01*
X00125617Y00159057D01*
X00128840Y00167764D01*
D02*
G37*
G36*
G01*
X00168859Y00117351D02*
X00168859Y00103745D01*
X00166000Y00103745D01*
X00165125Y00103771D01*
X00164311Y00103848D01*
X00163557Y00103976D01*
X00162864Y00104155D01*
X00162231Y00104386D01*
X00161659Y00104668D01*
X00161148Y00105001D01*
X00160697Y00105386D01*
X00160303Y00105826D01*
X00159962Y00106325D01*
X00159673Y00106883D01*
X00159436Y00107501D01*
X00159252Y00108178D01*
X00159121Y00108915D01*
X00159042Y00109711D01*
X00159016Y00110566D01*
X00159042Y00111415D01*
X00159121Y00112206D01*
X00159252Y00112938D01*
X00159436Y00113611D01*
X00159673Y00114225D01*
X00159962Y00114781D01*
X00160303Y00115278D01*
X00160697Y00115716D01*
X00161148Y00116099D01*
X00161659Y00116431D01*
X00162231Y00116712D01*
X00162864Y00116942D01*
X00163557Y00117121D01*
X00164311Y00117249D01*
X00165125Y00117325D01*
X00166000Y00117351D01*
X00168859Y00117351D01*
D02*
G37*
G36*
G01*
X00150379Y00117351D02*
X00150379Y00103745D01*
X00147520Y00103745D01*
X00146645Y00103771D01*
X00145830Y00103848D01*
X00145076Y00103976D01*
X00144383Y00104155D01*
X00143751Y00104386D01*
X00143179Y00104668D01*
X00142668Y00105001D01*
X00142217Y00105386D01*
X00141823Y00105826D01*
X00141481Y00106325D01*
X00141192Y00106883D01*
X00140956Y00107501D01*
X00140772Y00108178D01*
X00140640Y00108915D01*
X00140561Y00109711D01*
X00140535Y00110566D01*
X00140561Y00111415D01*
X00140640Y00112206D01*
X00140772Y00112938D01*
X00140956Y00113611D01*
X00141192Y00114225D01*
X00141481Y00114781D01*
X00141823Y00115278D01*
X00142217Y00115716D01*
X00142668Y00116099D01*
X00143179Y00116431D01*
X00143751Y00116712D01*
X00144383Y00116942D01*
X00145076Y00117121D01*
X00145830Y00117249D01*
X00146645Y00117325D01*
X00147520Y00117351D01*
X00150379Y00117351D01*
D02*
G37*
G36*
G01*
X00131898Y00117351D02*
X00131898Y00103745D01*
X00129039Y00103745D01*
X00128164Y00103771D01*
X00127350Y00103848D01*
X00126596Y00103976D01*
X00125903Y00104155D01*
X00125270Y00104386D01*
X00124698Y00104668D01*
X00124187Y00105001D01*
X00123736Y00105386D01*
X00123342Y00105826D01*
X00123001Y00106325D01*
X00122712Y00106883D01*
X00122475Y00107501D01*
X00122291Y00108178D01*
X00122160Y00108915D01*
X00122081Y00109711D01*
X00122055Y00110566D01*
X00122081Y00111415D01*
X00122160Y00112206D01*
X00122291Y00112938D01*
X00122475Y00113611D01*
X00122712Y00114225D01*
X00123001Y00114781D01*
X00123342Y00115278D01*
X00123736Y00115716D01*
X00124187Y00116099D01*
X00124698Y00116431D01*
X00125270Y00116712D01*
X00125903Y00116942D01*
X00126596Y00117121D01*
X00127350Y00117249D01*
X00128164Y00117325D01*
X00129039Y00117351D01*
X00131898Y00117351D01*
D02*
G37*
G36*
G01*
X00168859Y00244351D02*
X00168859Y00230745D01*
X00166000Y00230745D01*
X00165125Y00230771D01*
X00164311Y00230848D01*
X00163557Y00230976D01*
X00162864Y00231155D01*
X00162231Y00231386D01*
X00161659Y00231668D01*
X00161148Y00232001D01*
X00160697Y00232386D01*
X00160303Y00232826D01*
X00159962Y00233325D01*
X00159673Y00233883D01*
X00159436Y00234501D01*
X00159252Y00235178D01*
X00159121Y00235915D01*
X00159042Y00236711D01*
X00159016Y00237566D01*
X00159042Y00238415D01*
X00159121Y00239206D01*
X00159252Y00239938D01*
X00159436Y00240611D01*
X00159673Y00241225D01*
X00159962Y00241781D01*
X00160303Y00242278D01*
X00160697Y00242716D01*
X00161148Y00243099D01*
X00161659Y00243431D01*
X00162231Y00243712D01*
X00162864Y00243942D01*
X00163557Y00244121D01*
X00164311Y00244249D01*
X00165125Y00244325D01*
X00166000Y00244351D01*
X00168859Y00244351D01*
D02*
G37*
G36*
G01*
X00150379Y00244351D02*
X00150379Y00230745D01*
X00147520Y00230745D01*
X00146645Y00230771D01*
X00145830Y00230848D01*
X00145076Y00230976D01*
X00144383Y00231155D01*
X00143751Y00231386D01*
X00143179Y00231668D01*
X00142668Y00232001D01*
X00142217Y00232386D01*
X00141823Y00232826D01*
X00141481Y00233325D01*
X00141192Y00233883D01*
X00140956Y00234501D01*
X00140772Y00235178D01*
X00140640Y00235915D01*
X00140561Y00236711D01*
X00140535Y00237566D01*
X00140561Y00238415D01*
X00140640Y00239206D01*
X00140772Y00239938D01*
X00140956Y00240611D01*
X00141192Y00241225D01*
X00141481Y00241781D01*
X00141823Y00242278D01*
X00142217Y00242716D01*
X00142668Y00243099D01*
X00143179Y00243431D01*
X00143751Y00243712D01*
X00144383Y00243942D01*
X00145076Y00244121D01*
X00145830Y00244249D01*
X00146645Y00244325D01*
X00147520Y00244351D01*
X00150379Y00244351D01*
D02*
G37*
G36*
G01*
X00148727Y00218951D02*
X00148727Y00205345D01*
X00145867Y00205345D01*
X00144992Y00205371D01*
X00144178Y00205448D01*
X00143424Y00205576D01*
X00142731Y00205755D01*
X00142098Y00205986D01*
X00141526Y00206268D01*
X00141015Y00206601D01*
X00140564Y00206986D01*
X00140170Y00207426D01*
X00139829Y00207925D01*
X00139540Y00208483D01*
X00139303Y00209101D01*
X00139119Y00209778D01*
X00138988Y00210515D01*
X00138909Y00211311D01*
X00138883Y00212166D01*
X00138909Y00213015D01*
X00138988Y00213806D01*
X00139119Y00214538D01*
X00139303Y00215211D01*
X00139540Y00215825D01*
X00139829Y00216381D01*
X00140170Y00216878D01*
X00140564Y00217316D01*
X00141015Y00217699D01*
X00141526Y00218031D01*
X00142098Y00218312D01*
X00142731Y00218542D01*
X00143424Y00218721D01*
X00144178Y00218849D01*
X00144992Y00218925D01*
X00145867Y00218951D01*
X00148727Y00218951D01*
D02*
G37*
G36*
G01*
X00148727Y00269751D02*
X00148727Y00256145D01*
X00145867Y00256145D01*
X00144992Y00256171D01*
X00144178Y00256248D01*
X00143424Y00256376D01*
X00142731Y00256555D01*
X00142098Y00256786D01*
X00141526Y00257068D01*
X00141015Y00257401D01*
X00140564Y00257786D01*
X00140170Y00258226D01*
X00139829Y00258725D01*
X00139540Y00259283D01*
X00139303Y00259901D01*
X00139119Y00260578D01*
X00138988Y00261315D01*
X00138909Y00262111D01*
X00138883Y00262966D01*
X00138909Y00263815D01*
X00138988Y00264606D01*
X00139119Y00265338D01*
X00139303Y00266011D01*
X00139540Y00266625D01*
X00139829Y00267181D01*
X00140170Y00267678D01*
X00140564Y00268116D01*
X00141015Y00268499D01*
X00141526Y00268831D01*
X00142098Y00269112D01*
X00142731Y00269342D01*
X00143424Y00269521D01*
X00144178Y00269649D01*
X00144992Y00269725D01*
X00145867Y00269751D01*
X00148727Y00269751D01*
D02*
G37*
M02*
