%FSLAX44Y44*%
%MOMM*%
%LPD*%
G36*
G01*
X00016153Y00290225D02*
X00018949Y00290225D01*
X00025895Y00272000D01*
X00023331Y00272000D01*
X00021671Y00276675D01*
X00013456Y00276675D01*
X00011795Y00272000D01*
X00009195Y00272000D01*
X00016153Y00290225D01*
D02*
G37*
G36*
G01*
X00039481Y00287222D02*
X00039132Y00287385D01*
X00038789Y00287536D01*
X00038450Y00287678D01*
X00038117Y00287808D01*
X00037788Y00287928D01*
X00037465Y00288037D01*
X00037146Y00288135D01*
X00036832Y00288223D01*
X00036522Y00288300D01*
X00036215Y00288367D01*
X00035910Y00288424D01*
X00035608Y00288470D01*
X00035309Y00288506D01*
X00035012Y00288532D01*
X00034718Y00288548D01*
X00034427Y00288553D01*
X00033938Y00288541D01*
X00033478Y00288504D01*
X00033046Y00288443D01*
X00032643Y00288357D01*
X00032270Y00288248D01*
X00031924Y00288113D01*
X00031608Y00287955D01*
X00031321Y00287771D01*
X00031064Y00287566D01*
X00030843Y00287340D01*
X00030655Y00287093D01*
X00030501Y00286825D01*
X00030382Y00286537D01*
X00030296Y00286229D01*
X00030245Y00285900D01*
X00030228Y00285550D01*
X00030239Y00285257D01*
X00030273Y00284983D01*
X00030330Y00284727D01*
X00030410Y00284489D01*
X00030512Y00284270D01*
X00030637Y00284070D01*
X00030784Y00283888D01*
X00030954Y00283725D01*
X00031156Y00283574D01*
X00031399Y00283432D01*
X00031682Y00283296D01*
X00032006Y00283168D01*
X00032370Y00283047D01*
X00032775Y00282934D01*
X00033221Y00282828D01*
X00033707Y00282730D01*
X00035196Y00282425D01*
X00035863Y00282281D01*
X00036485Y00282112D01*
X00037062Y00281919D01*
X00037593Y00281700D01*
X00038080Y00281456D01*
X00038521Y00281188D01*
X00038917Y00280894D01*
X00039267Y00280575D01*
X00039575Y00280230D01*
X00039841Y00279857D01*
X00040067Y00279456D01*
X00040252Y00279027D01*
X00040395Y00278569D01*
X00040498Y00278084D01*
X00040559Y00277571D01*
X00040580Y00277029D01*
X00040552Y00276387D01*
X00040469Y00275785D01*
X00040330Y00275223D01*
X00040136Y00274701D01*
X00039886Y00274219D01*
X00039581Y00273777D01*
X00039220Y00273375D01*
X00038803Y00273013D01*
X00038334Y00272693D01*
X00037812Y00272415D01*
X00037239Y00272180D01*
X00036614Y00271988D01*
X00035937Y00271838D01*
X00035209Y00271731D01*
X00034429Y00271667D01*
X00033597Y00271646D01*
X00033271Y00271651D01*
X00032940Y00271664D01*
X00032604Y00271687D01*
X00032262Y00271719D01*
X00031915Y00271760D01*
X00031564Y00271811D01*
X00031207Y00271870D01*
X00030844Y00271939D01*
X00030478Y00272017D01*
X00030109Y00272103D01*
X00029736Y00272198D01*
X00029360Y00272302D01*
X00028981Y00272415D01*
X00028598Y00272536D01*
X00028212Y00272667D01*
X00027823Y00272806D01*
X00027823Y00275345D01*
X00028198Y00275141D01*
X00028570Y00274950D01*
X00028941Y00274771D01*
X00029309Y00274606D01*
X00029676Y00274454D01*
X00030041Y00274315D01*
X00030404Y00274188D01*
X00030765Y00274075D01*
X00031124Y00273975D01*
X00031482Y00273888D01*
X00031839Y00273815D01*
X00032193Y00273755D01*
X00032547Y00273708D01*
X00032898Y00273675D01*
X00033249Y00273655D01*
X00033597Y00273648D01*
X00034110Y00273661D01*
X00034593Y00273700D01*
X00035045Y00273765D01*
X00035468Y00273855D01*
X00035860Y00273972D01*
X00036222Y00274115D01*
X00036555Y00274283D01*
X00036856Y00274478D01*
X00037125Y00274697D01*
X00037358Y00274937D01*
X00037556Y00275200D01*
X00037717Y00275485D01*
X00037843Y00275792D01*
X00037932Y00276121D01*
X00037986Y00276473D01*
X00038004Y00276846D01*
X00037991Y00277173D01*
X00037952Y00277481D01*
X00037888Y00277771D01*
X00037798Y00278042D01*
X00037682Y00278296D01*
X00037540Y00278531D01*
X00037373Y00278747D01*
X00037180Y00278946D01*
X00036957Y00279129D01*
X00036702Y00279301D01*
X00036413Y00279460D01*
X00036092Y00279608D01*
X00035737Y00279744D01*
X00035350Y00279868D01*
X00034930Y00279981D01*
X00034476Y00280081D01*
X00032975Y00280374D01*
X00032309Y00280521D01*
X00031691Y00280688D01*
X00031120Y00280874D01*
X00030597Y00281079D01*
X00030122Y00281304D01*
X00029695Y00281548D01*
X00029315Y00281812D01*
X00028983Y00282095D01*
X00028694Y00282402D01*
X00028444Y00282738D01*
X00028232Y00283103D01*
X00028058Y00283496D01*
X00027923Y00283918D01*
X00027827Y00284368D01*
X00027769Y00284847D01*
X00027750Y00285354D01*
X00027777Y00285943D01*
X00027856Y00286499D01*
X00027989Y00287023D01*
X00028176Y00287515D01*
X00028415Y00287975D01*
X00028708Y00288403D01*
X00029054Y00288799D01*
X00029453Y00289163D01*
X00029899Y00289489D01*
X00030385Y00289772D01*
X00030911Y00290011D01*
X00031478Y00290207D01*
X00032085Y00290359D01*
X00032732Y00290468D01*
X00033419Y00290533D01*
X00034146Y00290555D01*
X00034468Y00290551D01*
X00034790Y00290540D01*
X00035115Y00290522D01*
X00035440Y00290497D01*
X00035768Y00290464D01*
X00036097Y00290424D01*
X00036427Y00290377D01*
X00036759Y00290323D01*
X00037092Y00290261D01*
X00037428Y00290192D01*
X00037765Y00290116D01*
X00038105Y00290033D01*
X00038446Y00289942D01*
X00038789Y00289844D01*
X00039134Y00289739D01*
X00039481Y00289627D01*
X00039481Y00287222D01*
D02*
G37*
G36*
G01*
X00052372Y00290225D02*
X00057938Y00290225D01*
X00058681Y00290203D01*
X00059377Y00290139D01*
X00060026Y00290030D01*
X00060628Y00289879D01*
X00061184Y00289684D01*
X00061693Y00289446D01*
X00062155Y00289164D01*
X00062571Y00288840D01*
X00062938Y00288473D01*
X00063257Y00288066D01*
X00063526Y00287619D01*
X00063747Y00287132D01*
X00063919Y00286605D01*
X00064041Y00286037D01*
X00064115Y00285429D01*
X00064139Y00284781D01*
X00064115Y00284127D01*
X00064041Y00283514D01*
X00063919Y00282943D01*
X00063747Y00282413D01*
X00063526Y00281924D01*
X00063257Y00281476D01*
X00062938Y00281069D01*
X00062571Y00280704D01*
X00062155Y00280380D01*
X00061693Y00280100D01*
X00061184Y00279863D01*
X00060628Y00279669D01*
X00060026Y00279518D01*
X00059377Y00279410D01*
X00058681Y00279346D01*
X00057938Y00279324D01*
X00054837Y00279324D01*
X00054837Y00272000D01*
X00052372Y00272000D01*
X00052372Y00290225D01*
D02*
G37*
G36*
G01*
X00076288Y00280468D02*
X00076484Y00280372D01*
X00076679Y00280258D01*
X00076873Y00280124D01*
X00077065Y00279971D01*
X00077256Y00279799D01*
X00077446Y00279608D01*
X00077634Y00279397D01*
X00077822Y00279167D01*
X00078010Y00278917D01*
X00078198Y00278646D01*
X00078386Y00278354D01*
X00078575Y00278041D01*
X00078764Y00277708D01*
X00078952Y00277355D01*
X00079142Y00276980D01*
X00081644Y00272000D01*
X00078995Y00272000D01*
X00076664Y00276675D01*
X00076439Y00277114D01*
X00076215Y00277514D01*
X00075994Y00277875D01*
X00075774Y00278198D01*
X00075556Y00278483D01*
X00075339Y00278728D01*
X00075125Y00278936D01*
X00074912Y00279104D01*
X00074690Y00279245D01*
X00074449Y00279366D01*
X00074189Y00279469D01*
X00073909Y00279553D01*
X00073611Y00279619D01*
X00073293Y00279665D01*
X00072955Y00279693D01*
X00072599Y00279703D01*
X00069913Y00279703D01*
X00069913Y00272000D01*
X00067447Y00272000D01*
X00067447Y00290225D01*
X00073014Y00290225D01*
X00073770Y00290205D01*
X00074477Y00290143D01*
X00075134Y00290041D01*
X00075742Y00289899D01*
X00076300Y00289715D01*
X00076809Y00289490D01*
X00077267Y00289225D01*
X00077677Y00288919D01*
X00078037Y00288572D01*
X00078350Y00288183D01*
X00078614Y00287752D01*
X00078830Y00287280D01*
X00078999Y00286767D01*
X00079119Y00286211D01*
X00079191Y00285614D01*
X00079215Y00284976D01*
X00079202Y00284555D01*
X00079165Y00284152D01*
X00079102Y00283768D01*
X00079015Y00283401D01*
X00078903Y00283053D01*
X00078765Y00282724D01*
X00078603Y00282413D01*
X00078415Y00282120D01*
X00078204Y00281847D01*
X00077970Y00281595D01*
X00077713Y00281366D01*
X00077434Y00281158D01*
X00077132Y00280972D01*
X00076807Y00280808D01*
X00076460Y00280666D01*
X00076090Y00280545D01*
X00076288Y00280468D01*
D02*
G37*
G36*
G01*
X00015361Y00095830D02*
X00015361Y00095000D01*
X00010732Y00095000D01*
X00010732Y00095830D01*
X00010879Y00095982D01*
X00011039Y00096145D01*
X00011211Y00096322D01*
X00011396Y00096511D01*
X00011594Y00096712D01*
X00011804Y00096926D01*
X00012027Y00097152D01*
X00012263Y00097390D01*
X00012494Y00097624D01*
X00012703Y00097836D01*
X00012889Y00098027D01*
X00013052Y00098195D01*
X00013193Y00098342D01*
X00013312Y00098467D01*
X00013408Y00098571D01*
X00013481Y00098652D01*
X00013595Y00098783D01*
X00013700Y00098908D01*
X00013797Y00099029D01*
X00013884Y00099144D01*
X00013962Y00099254D01*
X00014031Y00099359D01*
X00014092Y00099459D01*
X00014143Y00099553D01*
X00014187Y00099645D01*
X00014225Y00099737D01*
X00014258Y00099828D01*
X00014284Y00099919D01*
X00014305Y00100009D01*
X00014319Y00100099D01*
X00014328Y00100189D01*
X00014331Y00100278D01*
X00014325Y00100420D01*
X00014306Y00100555D01*
X00014274Y00100684D01*
X00014229Y00100806D01*
X00014172Y00100921D01*
X00014102Y00101029D01*
X00014019Y00101131D01*
X00013923Y00101226D01*
X00013818Y00101311D01*
X00013704Y00101386D01*
X00013583Y00101449D01*
X00013454Y00101500D01*
X00013317Y00101540D01*
X00013173Y00101569D01*
X00013021Y00101586D01*
X00012861Y00101592D01*
X00012745Y00101589D01*
X00012626Y00101582D01*
X00012506Y00101569D01*
X00012385Y00101552D01*
X00012261Y00101529D01*
X00012137Y00101501D01*
X00012010Y00101468D01*
X00011882Y00101431D01*
X00011752Y00101388D01*
X00011620Y00101340D01*
X00011486Y00101286D01*
X00011349Y00101228D01*
X00011211Y00101164D01*
X00011070Y00101096D01*
X00010927Y00101022D01*
X00010781Y00100942D01*
X00010781Y00101938D01*
X00010929Y00101996D01*
X00011074Y00102051D01*
X00011217Y00102101D01*
X00011357Y00102148D01*
X00011495Y00102192D01*
X00011631Y00102231D01*
X00011764Y00102267D01*
X00011895Y00102300D01*
X00012023Y00102328D01*
X00012148Y00102353D01*
X00012270Y00102374D01*
X00012390Y00102391D01*
X00012507Y00102405D01*
X00012621Y00102414D01*
X00012733Y00102420D01*
X00012842Y00102422D01*
X00013118Y00102413D01*
X00013380Y00102386D01*
X00013627Y00102342D01*
X00013860Y00102280D01*
X00014079Y00102201D01*
X00014283Y00102103D01*
X00014473Y00101988D01*
X00014648Y00101855D01*
X00014806Y00101708D01*
X00014943Y00101548D01*
X00015059Y00101377D01*
X00015154Y00101194D01*
X00015228Y00100999D01*
X00015280Y00100792D01*
X00015312Y00100573D01*
X00015322Y00100342D01*
X00015320Y00100230D01*
X00015312Y00100120D01*
X00015299Y00100011D01*
X00015280Y00099904D01*
X00015256Y00099798D01*
X00015228Y00099694D01*
X00015193Y00099591D01*
X00015154Y00099490D01*
X00015107Y00099387D01*
X00015052Y00099279D01*
X00014989Y00099167D01*
X00014916Y00099051D01*
X00014835Y00098930D01*
X00014746Y00098804D01*
X00014648Y00098675D01*
X00014541Y00098540D01*
X00014502Y00098496D01*
X00014447Y00098436D01*
X00014375Y00098359D01*
X00014286Y00098265D01*
X00014181Y00098154D01*
X00014059Y00098027D01*
X00013920Y00097883D01*
X00013765Y00097722D01*
X00013593Y00097545D01*
X00013404Y00097350D01*
X00013198Y00097139D01*
X00012976Y00096911D01*
X00012737Y00096666D01*
X00012481Y00096404D01*
X00012208Y00096126D01*
X00011919Y00095830D01*
X00015361Y00095830D01*
D02*
G37*
G36*
G01*
X00019838Y00102407D02*
X00020118Y00102361D01*
X00020379Y00102286D01*
X00020622Y00102180D01*
X00020847Y00102043D01*
X00021054Y00101877D01*
X00021243Y00101680D01*
X00021414Y00101453D01*
X00021565Y00101197D01*
X00021697Y00100913D01*
X00021808Y00100602D01*
X00021899Y00100264D01*
X00021970Y00099899D01*
X00022020Y00099506D01*
X00022050Y00099085D01*
X00022061Y00098638D01*
X00022050Y00098191D01*
X00022020Y00097772D01*
X00021970Y00097380D01*
X00021899Y00097015D01*
X00021808Y00096677D01*
X00021697Y00096367D01*
X00021565Y00096084D01*
X00021414Y00095828D01*
X00021243Y00095600D01*
X00021054Y00095404D01*
X00020847Y00095237D01*
X00020622Y00095101D01*
X00020379Y00094995D01*
X00020118Y00094919D01*
X00019838Y00094874D01*
X00019541Y00094858D01*
X00019244Y00094874D01*
X00018964Y00094919D01*
X00018703Y00094995D01*
X00018460Y00095101D01*
X00018235Y00095237D01*
X00018028Y00095404D01*
X00017839Y00095600D01*
X00017668Y00095828D01*
X00017517Y00096084D01*
X00017385Y00096367D01*
X00017274Y00096677D01*
X00017183Y00097015D01*
X00017112Y00097380D01*
X00017062Y00097772D01*
X00017032Y00098191D01*
X00017021Y00098638D01*
X00017032Y00099085D01*
X00017062Y00099506D01*
X00017112Y00099899D01*
X00017183Y00100264D01*
X00017274Y00100602D01*
X00017385Y00100913D01*
X00017517Y00101197D01*
X00017668Y00101453D01*
X00017839Y00101680D01*
X00018028Y00101877D01*
X00018235Y00102043D01*
X00018460Y00102180D01*
X00018703Y00102286D01*
X00018964Y00102361D01*
X00019244Y00102407D01*
X00019541Y00102422D01*
X00019838Y00102407D01*
D02*
G37*
G36*
G01*
X00023965Y00095830D02*
X00025576Y00095830D01*
X00025576Y00101392D01*
X00023823Y00101040D01*
X00023823Y00101938D01*
X00025566Y00102290D01*
X00026553Y00102290D01*
X00026553Y00095830D01*
X00028164Y00095830D01*
X00028164Y00095000D01*
X00023965Y00095000D01*
X00023965Y00095830D01*
D02*
G37*
G36*
G01*
X00034346Y00101230D02*
X00034253Y00101273D01*
X00034160Y00101313D01*
X00034066Y00101351D01*
X00033973Y00101385D01*
X00033879Y00101418D01*
X00033785Y00101447D01*
X00033691Y00101475D01*
X00033596Y00101499D01*
X00033502Y00101521D01*
X00033407Y00101540D01*
X00033313Y00101556D01*
X00033220Y00101569D01*
X00033126Y00101579D01*
X00033033Y00101586D01*
X00032940Y00101590D01*
X00032847Y00101592D01*
X00032610Y00101581D01*
X00032387Y00101551D01*
X00032179Y00101499D01*
X00031985Y00101427D01*
X00031806Y00101334D01*
X00031641Y00101221D01*
X00031491Y00101087D01*
X00031355Y00100933D01*
X00031233Y00100757D01*
X00031125Y00100561D01*
X00031031Y00100343D01*
X00030950Y00100105D01*
X00030884Y00099845D01*
X00030831Y00099565D01*
X00030792Y00099263D01*
X00030767Y00098940D01*
X00030841Y00099044D01*
X00030920Y00099140D01*
X00031003Y00099231D01*
X00031091Y00099316D01*
X00031184Y00099394D01*
X00031281Y00099466D01*
X00031383Y00099532D01*
X00031489Y00099592D01*
X00031599Y00099646D01*
X00031712Y00099692D01*
X00031828Y00099731D01*
X00031946Y00099763D01*
X00032067Y00099787D01*
X00032191Y00099805D01*
X00032317Y00099816D01*
X00032446Y00099819D01*
X00032714Y00099809D01*
X00032967Y00099778D01*
X00033205Y00099726D01*
X00033430Y00099653D01*
X00033639Y00099559D01*
X00033835Y00099444D01*
X00034016Y00099309D01*
X00034182Y00099153D01*
X00034331Y00098979D01*
X00034461Y00098790D01*
X00034570Y00098585D01*
X00034660Y00098366D01*
X00034730Y00098132D01*
X00034780Y00097883D01*
X00034809Y00097618D01*
X00034819Y00097339D01*
X00034809Y00097065D01*
X00034778Y00096805D01*
X00034726Y00096559D01*
X00034653Y00096327D01*
X00034560Y00096109D01*
X00034446Y00095904D01*
X00034311Y00095714D01*
X00034155Y00095537D01*
X00033982Y00095378D01*
X00033796Y00095240D01*
X00033595Y00095124D01*
X00033381Y00095028D01*
X00033154Y00094954D01*
X00032912Y00094901D01*
X00032657Y00094869D01*
X00032388Y00094858D01*
X00032081Y00094874D01*
X00031793Y00094919D01*
X00031523Y00094995D01*
X00031272Y00095101D01*
X00031040Y00095237D01*
X00030826Y00095404D01*
X00030631Y00095600D01*
X00030454Y00095828D01*
X00030297Y00096084D01*
X00030161Y00096367D01*
X00030046Y00096677D01*
X00029952Y00097015D01*
X00029879Y00097380D01*
X00029827Y00097772D01*
X00029796Y00098191D01*
X00029785Y00098638D01*
X00029798Y00099059D01*
X00029836Y00099458D01*
X00029901Y00099836D01*
X00029990Y00100191D01*
X00030106Y00100525D01*
X00030247Y00100836D01*
X00030413Y00101126D01*
X00030605Y00101394D01*
X00030819Y00101635D01*
X00031051Y00101844D01*
X00031300Y00102020D01*
X00031566Y00102165D01*
X00031850Y00102277D01*
X00032152Y00102358D01*
X00032471Y00102406D01*
X00032808Y00102422D01*
X00032901Y00102421D01*
X00032994Y00102417D01*
X00033087Y00102412D01*
X00033181Y00102404D01*
X00033274Y00102393D01*
X00033368Y00102381D01*
X00033463Y00102366D01*
X00033557Y00102349D01*
X00033652Y00102329D01*
X00033748Y00102307D01*
X00033845Y00102283D01*
X00033943Y00102257D01*
X00034043Y00102228D01*
X00034143Y00102198D01*
X00034244Y00102164D01*
X00034346Y00102129D01*
X00034346Y00101230D01*
D02*
G37*
G36*
G01*
X00009971Y00091290D02*
X00016138Y00091290D01*
X00016138Y00090460D01*
X00013550Y00090460D01*
X00013550Y00084000D01*
X00012559Y00084000D01*
X00012559Y00090460D01*
X00009971Y00090460D01*
X00009971Y00091290D01*
D02*
G37*
G36*
G01*
X00017090Y00091290D02*
X00018076Y00091290D01*
X00018076Y00088302D01*
X00021660Y00088302D01*
X00021660Y00091290D01*
X00022646Y00091290D01*
X00022646Y00084000D01*
X00021660Y00084000D01*
X00021660Y00087472D01*
X00018076Y00087472D01*
X00018076Y00084000D01*
X00017090Y00084000D01*
X00017090Y00091290D01*
D02*
G37*
G36*
G01*
X00024180Y00089469D02*
X00028447Y00089469D01*
X00028447Y00088648D01*
X00025068Y00084718D01*
X00028447Y00084718D01*
X00028447Y00084000D01*
X00024058Y00084000D01*
X00024058Y00084820D01*
X00027437Y00088751D01*
X00024180Y00088751D01*
X00024180Y00089469D01*
D02*
G37*
G36*
G01*
X00033887Y00091021D02*
X00033887Y00089469D01*
X00035737Y00089469D01*
X00035737Y00088771D01*
X00033887Y00088771D01*
X00033887Y00085802D01*
X00033890Y00085642D01*
X00033898Y00085497D01*
X00033912Y00085367D01*
X00033932Y00085252D01*
X00033958Y00085152D01*
X00033990Y00085068D01*
X00034027Y00084997D01*
X00034070Y00084942D01*
X00034122Y00084898D01*
X00034185Y00084859D01*
X00034260Y00084826D01*
X00034348Y00084800D01*
X00034447Y00084779D01*
X00034557Y00084764D01*
X00034680Y00084755D01*
X00034814Y00084752D01*
X00035737Y00084752D01*
X00035737Y00084000D01*
X00034814Y00084000D01*
X00034565Y00084006D01*
X00034335Y00084024D01*
X00034125Y00084055D01*
X00033936Y00084097D01*
X00033766Y00084152D01*
X00033617Y00084218D01*
X00033488Y00084297D01*
X00033379Y00084388D01*
X00033286Y00084495D01*
X00033206Y00084622D01*
X00033138Y00084769D01*
X00033082Y00084936D01*
X00033039Y00085122D01*
X00033008Y00085329D01*
X00032990Y00085555D01*
X00032983Y00085802D01*
X00032983Y00088771D01*
X00032324Y00088771D01*
X00032324Y00089469D01*
X00032983Y00089469D01*
X00032983Y00091021D01*
X00033887Y00091021D01*
D02*
G37*
G36*
G01*
X00040088Y00088629D02*
X00040050Y00088650D01*
X00040011Y00088670D01*
X00039971Y00088688D01*
X00039930Y00088705D01*
X00039888Y00088721D01*
X00039846Y00088735D01*
X00039802Y00088747D01*
X00039758Y00088758D01*
X00039713Y00088768D01*
X00039667Y00088776D01*
X00039619Y00088784D01*
X00039571Y00088789D01*
X00039521Y00088794D01*
X00039470Y00088797D01*
X00039418Y00088799D01*
X00039365Y00088800D01*
X00039180Y00088792D01*
X00039007Y00088769D01*
X00038844Y00088730D01*
X00038692Y00088676D01*
X00038551Y00088606D01*
X00038422Y00088521D01*
X00038303Y00088420D01*
X00038196Y00088304D01*
X00038100Y00088174D01*
X00038017Y00088029D01*
X00037947Y00087872D01*
X00037890Y00087701D01*
X00037845Y00087516D01*
X00037814Y00087318D01*
X00037794Y00087106D01*
X00037788Y00086881D01*
X00037788Y00084000D01*
X00036885Y00084000D01*
X00036885Y00089469D01*
X00037788Y00089469D01*
X00037788Y00088619D01*
X00037862Y00088740D01*
X00037940Y00088852D01*
X00038025Y00088957D01*
X00038114Y00089053D01*
X00038209Y00089142D01*
X00038309Y00089222D01*
X00038415Y00089294D01*
X00038525Y00089359D01*
X00038642Y00089416D01*
X00038765Y00089465D01*
X00038893Y00089506D01*
X00039028Y00089540D01*
X00039169Y00089567D01*
X00039316Y00089585D01*
X00039470Y00089597D01*
X00039629Y00089601D01*
X00039652Y00089600D01*
X00039677Y00089600D01*
X00039701Y00089599D01*
X00039727Y00089598D01*
X00039753Y00089596D01*
X00039779Y00089594D01*
X00039806Y00089591D01*
X00039834Y00089588D01*
X00039862Y00089585D01*
X00039892Y00089582D01*
X00039922Y00089578D01*
X00039952Y00089573D01*
X00039984Y00089568D01*
X00040016Y00089563D01*
X00040049Y00089558D01*
X00040083Y00089552D01*
X00040088Y00088629D01*
D02*
G37*
G36*
G01*
X00045308Y00084000D02*
X00044409Y00084000D01*
X00044409Y00084830D01*
X00044330Y00084710D01*
X00044246Y00084597D01*
X00044157Y00084493D01*
X00044064Y00084397D01*
X00043966Y00084310D01*
X00043863Y00084230D01*
X00043755Y00084159D01*
X00043643Y00084095D01*
X00043525Y00084040D01*
X00043400Y00083992D01*
X00043270Y00083951D01*
X00043132Y00083918D01*
X00042989Y00083892D01*
X00042839Y00083873D01*
X00042682Y00083862D01*
X00042520Y00083858D01*
X00042315Y00083866D01*
X00042121Y00083888D01*
X00041938Y00083925D01*
X00041766Y00083976D01*
X00041604Y00084042D01*
X00041453Y00084123D01*
X00041313Y00084219D01*
X00041184Y00084330D01*
X00041068Y00084452D01*
X00040967Y00084585D01*
X00040882Y00084728D01*
X00040812Y00084881D01*
X00040758Y00085044D01*
X00040719Y00085216D01*
X00040696Y00085399D01*
X00040688Y00085592D01*
X00040698Y00085815D01*
X00040727Y00086025D01*
X00040775Y00086220D01*
X00040843Y00086401D01*
X00040930Y00086568D01*
X00041036Y00086721D01*
X00041161Y00086859D01*
X00041306Y00086983D01*
X00041470Y00087093D01*
X00041653Y00087188D01*
X00041855Y00087269D01*
X00042076Y00087335D01*
X00042316Y00087386D01*
X00042575Y00087423D01*
X00042853Y00087445D01*
X00043149Y00087452D01*
X00044409Y00087452D01*
X00044409Y00087540D01*
X00044403Y00087691D01*
X00044384Y00087833D01*
X00044352Y00087966D01*
X00044307Y00088090D01*
X00044250Y00088206D01*
X00044180Y00088312D01*
X00044097Y00088410D01*
X00044001Y00088500D01*
X00043894Y00088579D01*
X00043777Y00088648D01*
X00043649Y00088706D01*
X00043511Y00088754D01*
X00043363Y00088791D01*
X00043204Y00088818D01*
X00043036Y00088834D01*
X00042856Y00088839D01*
X00042740Y00088837D01*
X00042624Y00088832D01*
X00042508Y00088823D01*
X00042394Y00088811D01*
X00042280Y00088795D01*
X00042167Y00088776D01*
X00042055Y00088753D01*
X00041943Y00088727D01*
X00041833Y00088697D01*
X00041723Y00088663D01*
X00041615Y00088627D01*
X00041508Y00088586D01*
X00041401Y00088542D01*
X00041296Y00088495D01*
X00041192Y00088444D01*
X00041089Y00088390D01*
X00041089Y00089220D01*
X00041212Y00089266D01*
X00041334Y00089309D01*
X00041455Y00089349D01*
X00041575Y00089386D01*
X00041694Y00089421D01*
X00041812Y00089452D01*
X00041929Y00089480D01*
X00042046Y00089505D01*
X00042161Y00089528D01*
X00042276Y00089547D01*
X00042390Y00089563D01*
X00042504Y00089577D01*
X00042616Y00089587D01*
X00042728Y00089595D01*
X00042839Y00089599D01*
X00042949Y00089601D01*
X00043236Y00089591D01*
X00043505Y00089562D01*
X00043755Y00089514D01*
X00043986Y00089447D01*
X00044198Y00089360D01*
X00044391Y00089255D01*
X00044566Y00089130D01*
X00044722Y00088985D01*
X00044859Y00088822D01*
X00044978Y00088638D01*
X00045079Y00088435D01*
X00045161Y00088211D01*
X00045225Y00087968D01*
X00045271Y00087705D01*
X00045298Y00087423D01*
X00045308Y00087120D01*
X00045308Y00084000D01*
D02*
G37*
G36*
G01*
X00051704Y00084000D02*
X00050806Y00084000D01*
X00050806Y00087271D01*
X00050801Y00087459D01*
X00050787Y00087635D01*
X00050763Y00087799D01*
X00050730Y00087950D01*
X00050687Y00088089D01*
X00050635Y00088216D01*
X00050574Y00088331D01*
X00050503Y00088434D01*
X00050423Y00088524D01*
X00050333Y00088602D01*
X00050233Y00088669D01*
X00050125Y00088723D01*
X00050006Y00088765D01*
X00049879Y00088795D01*
X00049741Y00088813D01*
X00049595Y00088819D01*
X00049418Y00088812D01*
X00049250Y00088790D01*
X00049092Y00088754D01*
X00048944Y00088703D01*
X00048805Y00088638D01*
X00048676Y00088558D01*
X00048557Y00088464D01*
X00048447Y00088355D01*
X00048349Y00088234D01*
X00048264Y00088102D01*
X00048191Y00087960D01*
X00048132Y00087807D01*
X00048086Y00087644D01*
X00048054Y00087470D01*
X00048034Y00087286D01*
X00048027Y00087091D01*
X00048027Y00084000D01*
X00047124Y00084000D01*
X00047124Y00089469D01*
X00048027Y00089469D01*
X00048027Y00088619D01*
X00048110Y00088739D01*
X00048196Y00088850D01*
X00048285Y00088954D01*
X00048378Y00089050D01*
X00048475Y00089138D01*
X00048575Y00089219D01*
X00048679Y00089292D01*
X00048787Y00089356D01*
X00048898Y00089414D01*
X00049014Y00089463D01*
X00049133Y00089505D01*
X00049257Y00089540D01*
X00049385Y00089566D01*
X00049518Y00089585D01*
X00049654Y00089597D01*
X00049795Y00089601D01*
X00050023Y00089591D01*
X00050237Y00089564D01*
X00050437Y00089519D01*
X00050623Y00089455D01*
X00050794Y00089373D01*
X00050950Y00089272D01*
X00051093Y00089154D01*
X00051221Y00089017D01*
X00051334Y00088863D01*
X00051432Y00088691D01*
X00051515Y00088502D01*
X00051583Y00088296D01*
X00051636Y00088073D01*
X00051674Y00087833D01*
X00051697Y00087575D01*
X00051704Y00087301D01*
X00051704Y00084000D01*
D02*
G37*
G36*
G01*
X00056982Y00088458D02*
X00056887Y00088505D01*
X00056790Y00088550D01*
X00056693Y00088591D01*
X00056594Y00088629D01*
X00056495Y00088664D01*
X00056395Y00088696D01*
X00056293Y00088725D01*
X00056191Y00088751D01*
X00056088Y00088774D01*
X00055984Y00088794D01*
X00055880Y00088810D01*
X00055774Y00088824D01*
X00055667Y00088835D01*
X00055560Y00088843D01*
X00055451Y00088847D01*
X00055342Y00088849D01*
X00055180Y00088845D01*
X00055028Y00088836D01*
X00054887Y00088820D01*
X00054756Y00088797D01*
X00054636Y00088769D01*
X00054527Y00088733D01*
X00054427Y00088692D01*
X00054338Y00088644D01*
X00054260Y00088589D01*
X00054192Y00088528D01*
X00054135Y00088461D01*
X00054088Y00088387D01*
X00054051Y00088307D01*
X00054025Y00088221D01*
X00054009Y00088128D01*
X00054004Y00088028D01*
X00054008Y00087952D01*
X00054019Y00087880D01*
X00054038Y00087813D01*
X00054064Y00087749D01*
X00054097Y00087690D01*
X00054138Y00087635D01*
X00054187Y00087584D01*
X00054243Y00087538D01*
X00054311Y00087493D01*
X00054393Y00087450D01*
X00054491Y00087406D01*
X00054603Y00087364D01*
X00054731Y00087321D01*
X00054874Y00087280D01*
X00055032Y00087239D01*
X00055205Y00087198D01*
X00055513Y00087130D01*
X00055743Y00087076D01*
X00055957Y00087017D01*
X00056153Y00086952D01*
X00056331Y00086883D01*
X00056493Y00086808D01*
X00056637Y00086728D01*
X00056763Y00086642D01*
X00056873Y00086551D01*
X00056967Y00086453D01*
X00057049Y00086346D01*
X00057118Y00086230D01*
X00057175Y00086104D01*
X00057219Y00085969D01*
X00057250Y00085825D01*
X00057269Y00085671D01*
X00057275Y00085509D01*
X00057266Y00085323D01*
X00057238Y00085148D01*
X00057191Y00084982D01*
X00057125Y00084826D01*
X00057040Y00084681D01*
X00056936Y00084545D01*
X00056814Y00084419D01*
X00056672Y00084303D01*
X00056515Y00084199D01*
X00056343Y00084108D01*
X00056157Y00084032D01*
X00055956Y00083969D01*
X00055742Y00083921D01*
X00055514Y00083886D01*
X00055271Y00083865D01*
X00055015Y00083858D01*
X00054904Y00083860D01*
X00054793Y00083864D01*
X00054680Y00083870D01*
X00054566Y00083880D01*
X00054451Y00083892D01*
X00054335Y00083906D01*
X00054218Y00083924D01*
X00054099Y00083944D01*
X00053979Y00083967D01*
X00053858Y00083992D01*
X00053735Y00084020D01*
X00053610Y00084051D01*
X00053484Y00084084D01*
X00053356Y00084120D01*
X00053227Y00084159D01*
X00053096Y00084200D01*
X00053096Y00085128D01*
X00053220Y00085065D01*
X00053344Y00085007D01*
X00053467Y00084952D01*
X00053590Y00084901D01*
X00053713Y00084855D01*
X00053835Y00084813D01*
X00053956Y00084774D01*
X00054077Y00084740D01*
X00054198Y00084709D01*
X00054318Y00084683D01*
X00054438Y00084661D01*
X00054558Y00084643D01*
X00054678Y00084629D01*
X00054797Y00084618D01*
X00054916Y00084612D01*
X00055034Y00084610D01*
X00055188Y00084614D01*
X00055333Y00084624D01*
X00055469Y00084641D01*
X00055596Y00084665D01*
X00055713Y00084695D01*
X00055822Y00084733D01*
X00055921Y00084777D01*
X00056011Y00084828D01*
X00056091Y00084885D01*
X00056160Y00084947D01*
X00056219Y00085016D01*
X00056267Y00085089D01*
X00056304Y00085169D01*
X00056331Y00085254D01*
X00056347Y00085344D01*
X00056353Y00085440D01*
X00056349Y00085529D01*
X00056337Y00085613D01*
X00056318Y00085691D01*
X00056291Y00085764D01*
X00056256Y00085831D01*
X00056214Y00085894D01*
X00056164Y00085950D01*
X00056106Y00086002D01*
X00056035Y00086051D01*
X00055946Y00086099D01*
X00055838Y00086146D01*
X00055712Y00086194D01*
X00055568Y00086240D01*
X00055405Y00086287D01*
X00055224Y00086333D01*
X00055024Y00086378D01*
X00054712Y00086451D01*
X00054510Y00086498D01*
X00054323Y00086551D01*
X00054151Y00086609D01*
X00053993Y00086674D01*
X00053849Y00086744D01*
X00053720Y00086821D01*
X00053606Y00086903D01*
X00053506Y00086991D01*
X00053419Y00087086D01*
X00053344Y00087190D01*
X00053280Y00087302D01*
X00053228Y00087422D01*
X00053187Y00087551D01*
X00053158Y00087689D01*
X00053141Y00087835D01*
X00053135Y00087989D01*
X00053143Y00088177D01*
X00053169Y00088353D01*
X00053212Y00088518D01*
X00053271Y00088673D01*
X00053348Y00088816D01*
X00053442Y00088949D01*
X00053553Y00089070D01*
X00053682Y00089181D01*
X00053826Y00089279D01*
X00053984Y00089364D01*
X00054156Y00089437D01*
X00054343Y00089496D01*
X00054545Y00089542D01*
X00054760Y00089574D01*
X00054990Y00089594D01*
X00055234Y00089601D01*
X00055358Y00089599D01*
X00055480Y00089596D01*
X00055600Y00089590D01*
X00055718Y00089582D01*
X00055834Y00089572D01*
X00055948Y00089559D01*
X00056061Y00089545D01*
X00056172Y00089527D01*
X00056281Y00089508D01*
X00056387Y00089486D01*
X00056492Y00089462D01*
X00056594Y00089436D01*
X00056694Y00089407D01*
X00056793Y00089376D01*
X00056889Y00089343D01*
X00056982Y00089308D01*
X00056982Y00088458D01*
D02*
G37*
G36*
G01*
X00063050Y00088565D02*
X00063141Y00088702D01*
X00063235Y00088828D01*
X00063334Y00088945D01*
X00063437Y00089052D01*
X00063543Y00089149D01*
X00063654Y00089236D01*
X00063770Y00089312D01*
X00063889Y00089380D01*
X00064014Y00089439D01*
X00064144Y00089488D01*
X00064280Y00089529D01*
X00064420Y00089560D01*
X00064566Y00089583D01*
X00064717Y00089596D01*
X00064873Y00089601D01*
X00065081Y00089591D01*
X00065276Y00089563D01*
X00065459Y00089516D01*
X00065630Y00089451D01*
X00065789Y00089367D01*
X00065935Y00089264D01*
X00066069Y00089143D01*
X00066191Y00089002D01*
X00066300Y00088845D01*
X00066394Y00088672D01*
X00066474Y00088483D01*
X00066539Y00088278D01*
X00066590Y00088057D01*
X00066626Y00087821D01*
X00066648Y00087569D01*
X00066655Y00087301D01*
X00066655Y00084000D01*
X00065752Y00084000D01*
X00065752Y00087271D01*
X00065748Y00087462D01*
X00065735Y00087639D01*
X00065713Y00087804D01*
X00065682Y00087956D01*
X00065643Y00088096D01*
X00065595Y00088223D01*
X00065539Y00088337D01*
X00065474Y00088438D01*
X00065399Y00088528D01*
X00065316Y00088605D01*
X00065224Y00088671D01*
X00065122Y00088724D01*
X00065011Y00088766D01*
X00064891Y00088796D01*
X00064762Y00088813D01*
X00064624Y00088819D01*
X00064454Y00088812D01*
X00064293Y00088790D01*
X00064142Y00088754D01*
X00063999Y00088703D01*
X00063866Y00088638D01*
X00063741Y00088558D01*
X00063626Y00088464D01*
X00063521Y00088355D01*
X00063426Y00088234D01*
X00063343Y00088102D01*
X00063274Y00087960D01*
X00063217Y00087807D01*
X00063172Y00087644D01*
X00063141Y00087470D01*
X00063122Y00087286D01*
X00063115Y00087091D01*
X00063115Y00084000D01*
X00062212Y00084000D01*
X00062212Y00087271D01*
X00062208Y00087463D01*
X00062195Y00087641D01*
X00062173Y00087807D01*
X00062142Y00087959D01*
X00062103Y00088099D01*
X00062055Y00088226D01*
X00061999Y00088340D01*
X00061934Y00088441D01*
X00061859Y00088530D01*
X00061776Y00088606D01*
X00061682Y00088672D01*
X00061580Y00088725D01*
X00061467Y00088766D01*
X00061346Y00088796D01*
X00061215Y00088813D01*
X00061074Y00088819D01*
X00060907Y00088812D01*
X00060748Y00088790D01*
X00060598Y00088754D01*
X00060457Y00088703D01*
X00060324Y00088637D01*
X00060201Y00088557D01*
X00060086Y00088462D01*
X00059980Y00088353D01*
X00059885Y00088231D01*
X00059803Y00088099D01*
X00059734Y00087957D01*
X00059677Y00087804D01*
X00059632Y00087641D01*
X00059601Y00087468D01*
X00059582Y00087285D01*
X00059575Y00087091D01*
X00059575Y00084000D01*
X00058672Y00084000D01*
X00058672Y00089469D01*
X00059575Y00089469D01*
X00059575Y00088619D01*
X00059654Y00088741D01*
X00059737Y00088854D01*
X00059823Y00088959D01*
X00059913Y00089056D01*
X00060007Y00089145D01*
X00060105Y00089225D01*
X00060207Y00089297D01*
X00060312Y00089361D01*
X00060422Y00089417D01*
X00060537Y00089466D01*
X00060657Y00089507D01*
X00060782Y00089541D01*
X00060913Y00089567D01*
X00061048Y00089586D01*
X00061188Y00089597D01*
X00061333Y00089601D01*
X00061479Y00089596D01*
X00061620Y00089582D01*
X00061755Y00089558D01*
X00061884Y00089525D01*
X00062008Y00089482D01*
X00062126Y00089430D01*
X00062239Y00089369D01*
X00062346Y00089298D01*
X00062447Y00089218D01*
X00062541Y00089129D01*
X00062629Y00089032D01*
X00062709Y00088927D01*
X00062783Y00088813D01*
X00062850Y00088690D01*
X00062910Y00088559D01*
X00062964Y00088419D01*
X00063050Y00088565D01*
D02*
G37*
G36*
G01*
X00068447Y00089469D02*
X00069346Y00089469D01*
X00069346Y00084000D01*
X00068447Y00084000D01*
X00068447Y00089469D01*
D02*
G37*
G36*
G01*
X00068447Y00091598D02*
X00069346Y00091598D01*
X00069346Y00090460D01*
X00068447Y00090460D01*
X00068447Y00091598D01*
D02*
G37*
G36*
G01*
X00072114Y00091021D02*
X00072114Y00089469D01*
X00073965Y00089469D01*
X00073965Y00088771D01*
X00072114Y00088771D01*
X00072114Y00085802D01*
X00072117Y00085642D01*
X00072126Y00085497D01*
X00072140Y00085367D01*
X00072160Y00085252D01*
X00072186Y00085152D01*
X00072217Y00085068D01*
X00072254Y00084997D01*
X00072297Y00084942D01*
X00072349Y00084898D01*
X00072413Y00084859D01*
X00072488Y00084826D01*
X00072575Y00084800D01*
X00072674Y00084779D01*
X00072785Y00084764D01*
X00072908Y00084755D01*
X00073042Y00084752D01*
X00073965Y00084752D01*
X00073965Y00084000D01*
X00073042Y00084000D01*
X00072792Y00084006D01*
X00072562Y00084024D01*
X00072353Y00084055D01*
X00072163Y00084097D01*
X00071994Y00084152D01*
X00071844Y00084218D01*
X00071715Y00084297D01*
X00071606Y00084388D01*
X00071514Y00084495D01*
X00071433Y00084622D01*
X00071365Y00084769D01*
X00071310Y00084936D01*
X00071267Y00085122D01*
X00071236Y00085329D01*
X00071217Y00085555D01*
X00071211Y00085802D01*
X00071211Y00088771D01*
X00070552Y00088771D01*
X00070552Y00089469D01*
X00071211Y00089469D01*
X00071211Y00091021D01*
X00072114Y00091021D01*
D02*
G37*
G36*
G01*
X00076035Y00091021D02*
X00076035Y00089469D01*
X00077886Y00089469D01*
X00077886Y00088771D01*
X00076035Y00088771D01*
X00076035Y00085802D01*
X00076038Y00085642D01*
X00076047Y00085497D01*
X00076061Y00085367D01*
X00076081Y00085252D01*
X00076107Y00085152D01*
X00076138Y00085068D01*
X00076175Y00084997D01*
X00076218Y00084942D01*
X00076270Y00084898D01*
X00076333Y00084859D01*
X00076409Y00084826D01*
X00076496Y00084800D01*
X00076595Y00084779D01*
X00076706Y00084764D01*
X00076828Y00084755D01*
X00076963Y00084752D01*
X00077886Y00084752D01*
X00077886Y00084000D01*
X00076963Y00084000D01*
X00076713Y00084006D01*
X00076483Y00084024D01*
X00076273Y00084055D01*
X00076084Y00084097D01*
X00075915Y00084152D01*
X00075765Y00084218D01*
X00075636Y00084297D01*
X00075527Y00084388D01*
X00075435Y00084495D01*
X00075354Y00084622D01*
X00075286Y00084769D01*
X00075231Y00084936D01*
X00075187Y00085122D01*
X00075157Y00085329D01*
X00075138Y00085555D01*
X00075132Y00085802D01*
X00075132Y00088771D01*
X00074473Y00088771D01*
X00074473Y00089469D01*
X00075132Y00089469D01*
X00075132Y00091021D01*
X00076035Y00091021D01*
D02*
G37*
G36*
G01*
X00083745Y00086520D02*
X00079614Y00086520D01*
X00079636Y00086295D01*
X00079671Y00086083D01*
X00079720Y00085886D01*
X00079783Y00085702D01*
X00079860Y00085532D01*
X00079951Y00085376D01*
X00080055Y00085234D01*
X00080173Y00085106D01*
X00080305Y00084992D01*
X00080448Y00084893D01*
X00080604Y00084810D01*
X00080772Y00084742D01*
X00080952Y00084688D01*
X00081145Y00084650D01*
X00081350Y00084628D01*
X00081567Y00084620D01*
X00081696Y00084622D01*
X00081824Y00084628D01*
X00081951Y00084638D01*
X00082077Y00084652D01*
X00082202Y00084670D01*
X00082326Y00084692D01*
X00082449Y00084717D01*
X00082571Y00084747D01*
X00082692Y00084781D01*
X00082813Y00084818D01*
X00082934Y00084860D01*
X00083055Y00084906D01*
X00083175Y00084955D01*
X00083295Y00085009D01*
X00083415Y00085066D01*
X00083535Y00085128D01*
X00083535Y00084278D01*
X00083414Y00084229D01*
X00083292Y00084182D01*
X00083169Y00084138D01*
X00083046Y00084098D01*
X00082921Y00084060D01*
X00082796Y00084026D01*
X00082671Y00083994D01*
X00082544Y00083966D01*
X00082417Y00083941D01*
X00082289Y00083919D01*
X00082161Y00083900D01*
X00082032Y00083885D01*
X00081903Y00083874D01*
X00081774Y00083865D01*
X00081644Y00083860D01*
X00081514Y00083858D01*
X00081195Y00083870D01*
X00080893Y00083906D01*
X00080609Y00083966D01*
X00080341Y00084049D01*
X00080091Y00084156D01*
X00079857Y00084287D01*
X00079640Y00084442D01*
X00079441Y00084620D01*
X00079262Y00084819D01*
X00079107Y00085035D01*
X00078975Y00085267D01*
X00078868Y00085516D01*
X00078784Y00085782D01*
X00078725Y00086065D01*
X00078689Y00086364D01*
X00078677Y00086681D01*
X00078688Y00087008D01*
X00078722Y00087317D01*
X00078779Y00087610D01*
X00078858Y00087885D01*
X00078960Y00088143D01*
X00079085Y00088383D01*
X00079232Y00088606D01*
X00079402Y00088812D01*
X00079591Y00088997D01*
X00079796Y00089157D01*
X00080017Y00089293D01*
X00080253Y00089403D01*
X00080506Y00089490D01*
X00080774Y00089551D01*
X00081058Y00089588D01*
X00081357Y00089601D01*
X00081626Y00089589D01*
X00081880Y00089556D01*
X00082120Y00089501D01*
X00082346Y00089423D01*
X00082557Y00089323D01*
X00082753Y00089201D01*
X00082935Y00089057D01*
X00083103Y00088890D01*
X00083254Y00088705D01*
X00083384Y00088503D01*
X00083494Y00088286D01*
X00083585Y00088052D01*
X00083655Y00087803D01*
X00083705Y00087537D01*
X00083735Y00087256D01*
X00083745Y00086959D01*
X00083745Y00086520D01*
D02*
G37*
G36*
G01*
X00088389Y00088629D02*
X00088350Y00088650D01*
X00088311Y00088670D01*
X00088271Y00088688D01*
X00088231Y00088705D01*
X00088189Y00088721D01*
X00088147Y00088735D01*
X00088103Y00088747D01*
X00088059Y00088758D01*
X00088014Y00088768D01*
X00087968Y00088776D01*
X00087920Y00088784D01*
X00087872Y00088789D01*
X00087822Y00088794D01*
X00087771Y00088797D01*
X00087719Y00088799D01*
X00087666Y00088800D01*
X00087481Y00088792D01*
X00087307Y00088769D01*
X00087145Y00088730D01*
X00086993Y00088676D01*
X00086852Y00088606D01*
X00086723Y00088521D01*
X00086604Y00088420D01*
X00086497Y00088304D01*
X00086401Y00088174D01*
X00086318Y00088029D01*
X00086248Y00087872D01*
X00086191Y00087701D01*
X00086146Y00087516D01*
X00086114Y00087318D01*
X00086095Y00087106D01*
X00086089Y00086881D01*
X00086089Y00084000D01*
X00085186Y00084000D01*
X00085186Y00089469D01*
X00086089Y00089469D01*
X00086089Y00088619D01*
X00086162Y00088740D01*
X00086241Y00088852D01*
X00086325Y00088957D01*
X00086415Y00089053D01*
X00086510Y00089142D01*
X00086610Y00089222D01*
X00086715Y00089294D01*
X00086826Y00089359D01*
X00086943Y00089416D01*
X00087065Y00089465D01*
X00087194Y00089506D01*
X00087329Y00089540D01*
X00087470Y00089567D01*
X00087617Y00089585D01*
X00087770Y00089597D01*
X00087930Y00089601D01*
X00087953Y00089600D01*
X00087977Y00089600D01*
X00088002Y00089599D01*
X00088027Y00089598D01*
X00088053Y00089596D01*
X00088080Y00089594D01*
X00088107Y00089591D01*
X00088135Y00089588D01*
X00088163Y00089585D01*
X00088192Y00089582D01*
X00088222Y00089578D01*
X00088253Y00089573D01*
X00088285Y00089568D01*
X00088317Y00089563D01*
X00088350Y00089558D01*
X00088384Y00089552D01*
X00088389Y00088629D01*
D02*
G37*
G36*
G01*
X00092817Y00088458D02*
X00092722Y00088505D01*
X00092625Y00088550D01*
X00092528Y00088591D01*
X00092429Y00088629D01*
X00092330Y00088664D01*
X00092230Y00088696D01*
X00092128Y00088725D01*
X00092026Y00088751D01*
X00091923Y00088774D01*
X00091819Y00088794D01*
X00091715Y00088810D01*
X00091609Y00088824D01*
X00091502Y00088835D01*
X00091395Y00088843D01*
X00091286Y00088847D01*
X00091177Y00088849D01*
X00091015Y00088845D01*
X00090863Y00088836D01*
X00090722Y00088820D01*
X00090591Y00088797D01*
X00090471Y00088769D01*
X00090361Y00088733D01*
X00090262Y00088692D01*
X00090173Y00088644D01*
X00090095Y00088589D01*
X00090027Y00088528D01*
X00089970Y00088461D01*
X00089922Y00088387D01*
X00089886Y00088307D01*
X00089860Y00088221D01*
X00089844Y00088128D01*
X00089839Y00088028D01*
X00089843Y00087952D01*
X00089854Y00087880D01*
X00089873Y00087813D01*
X00089899Y00087749D01*
X00089932Y00087690D01*
X00089973Y00087635D01*
X00090022Y00087584D01*
X00090078Y00087538D01*
X00090145Y00087493D01*
X00090228Y00087450D01*
X00090326Y00087406D01*
X00090438Y00087364D01*
X00090566Y00087321D01*
X00090709Y00087280D01*
X00090867Y00087239D01*
X00091040Y00087198D01*
X00091348Y00087130D01*
X00091578Y00087076D01*
X00091792Y00087017D01*
X00091987Y00086952D01*
X00092166Y00086883D01*
X00092327Y00086808D01*
X00092471Y00086728D01*
X00092598Y00086642D01*
X00092708Y00086551D01*
X00092802Y00086453D01*
X00092884Y00086346D01*
X00092953Y00086230D01*
X00093010Y00086104D01*
X00093054Y00085969D01*
X00093085Y00085825D01*
X00093104Y00085671D01*
X00093110Y00085509D01*
X00093101Y00085323D01*
X00093073Y00085148D01*
X00093026Y00084982D01*
X00092960Y00084826D01*
X00092875Y00084681D01*
X00092771Y00084545D01*
X00092649Y00084419D01*
X00092507Y00084303D01*
X00092350Y00084199D01*
X00092178Y00084108D01*
X00091992Y00084032D01*
X00091791Y00083969D01*
X00091577Y00083921D01*
X00091349Y00083886D01*
X00091106Y00083865D01*
X00090850Y00083858D01*
X00090739Y00083860D01*
X00090628Y00083864D01*
X00090515Y00083870D01*
X00090401Y00083880D01*
X00090286Y00083892D01*
X00090170Y00083906D01*
X00090053Y00083924D01*
X00089934Y00083944D01*
X00089814Y00083967D01*
X00089693Y00083992D01*
X00089570Y00084020D01*
X00089445Y00084051D01*
X00089319Y00084084D01*
X00089191Y00084120D01*
X00089062Y00084159D01*
X00088931Y00084200D01*
X00088931Y00085128D01*
X00089055Y00085065D01*
X00089179Y00085007D01*
X00089302Y00084952D01*
X00089425Y00084901D01*
X00089548Y00084855D01*
X00089669Y00084813D01*
X00089791Y00084774D01*
X00089912Y00084740D01*
X00090033Y00084709D01*
X00090153Y00084683D01*
X00090273Y00084661D01*
X00090393Y00084643D01*
X00090513Y00084629D01*
X00090632Y00084618D01*
X00090751Y00084612D01*
X00090869Y00084610D01*
X00091023Y00084614D01*
X00091168Y00084624D01*
X00091304Y00084641D01*
X00091431Y00084665D01*
X00091548Y00084695D01*
X00091656Y00084733D01*
X00091756Y00084777D01*
X00091846Y00084828D01*
X00091926Y00084885D01*
X00091995Y00084947D01*
X00092054Y00085016D01*
X00092102Y00085089D01*
X00092139Y00085169D01*
X00092166Y00085254D01*
X00092182Y00085344D01*
X00092188Y00085440D01*
X00092184Y00085529D01*
X00092172Y00085613D01*
X00092153Y00085691D01*
X00092126Y00085764D01*
X00092091Y00085831D01*
X00092049Y00085894D01*
X00091999Y00085950D01*
X00091941Y00086002D01*
X00091870Y00086051D01*
X00091781Y00086099D01*
X00091673Y00086146D01*
X00091547Y00086194D01*
X00091403Y00086240D01*
X00091240Y00086287D01*
X00091059Y00086333D01*
X00090859Y00086378D01*
X00090547Y00086451D01*
X00090345Y00086498D01*
X00090158Y00086551D01*
X00089986Y00086609D01*
X00089828Y00086674D01*
X00089684Y00086744D01*
X00089555Y00086821D01*
X00089441Y00086903D01*
X00089341Y00086991D01*
X00089254Y00087086D01*
X00089178Y00087190D01*
X00089115Y00087302D01*
X00089062Y00087422D01*
X00089022Y00087551D01*
X00088993Y00087689D01*
X00088976Y00087835D01*
X00088970Y00087989D01*
X00088978Y00088177D01*
X00089004Y00088353D01*
X00089047Y00088518D01*
X00089106Y00088673D01*
X00089183Y00088816D01*
X00089277Y00088949D01*
X00089388Y00089070D01*
X00089517Y00089181D01*
X00089660Y00089279D01*
X00089819Y00089364D01*
X00089991Y00089437D01*
X00090178Y00089496D01*
X00090379Y00089542D01*
X00090595Y00089574D01*
X00090825Y00089594D01*
X00091069Y00089601D01*
X00091193Y00089599D01*
X00091315Y00089596D01*
X00091435Y00089590D01*
X00091553Y00089582D01*
X00091669Y00089572D01*
X00091783Y00089559D01*
X00091896Y00089545D01*
X00092007Y00089527D01*
X00092116Y00089508D01*
X00092222Y00089486D01*
X00092327Y00089462D01*
X00092429Y00089436D01*
X00092529Y00089407D01*
X00092628Y00089376D01*
X00092724Y00089343D01*
X00092817Y00089308D01*
X00092817Y00088458D01*
D02*
G37*
%LPC*%
G36*
G01*
X00017545Y00287796D02*
X00014200Y00278726D01*
X00020902Y00278726D01*
X00017545Y00287796D01*
D02*
G37*
G36*
G01*
X00054837Y00288199D02*
X00054837Y00281351D01*
X00057938Y00281351D01*
X00058356Y00281365D01*
X00058750Y00281406D01*
X00059119Y00281476D01*
X00059464Y00281573D01*
X00059784Y00281699D01*
X00060080Y00281852D01*
X00060352Y00282033D01*
X00060599Y00282242D01*
X00060819Y00282476D01*
X00061010Y00282735D01*
X00061172Y00283016D01*
X00061304Y00283322D01*
X00061407Y00283651D01*
X00061480Y00284004D01*
X00061524Y00284381D01*
X00061539Y00284781D01*
X00061524Y00285178D01*
X00061480Y00285552D01*
X00061407Y00285903D01*
X00061304Y00286230D01*
X00061172Y00286535D01*
X00061010Y00286816D01*
X00060819Y00287073D01*
X00060599Y00287308D01*
X00060352Y00287516D01*
X00060080Y00287697D01*
X00059784Y00287851D01*
X00059464Y00287976D01*
X00059119Y00288073D01*
X00058750Y00288143D01*
X00058356Y00288185D01*
X00057938Y00288199D01*
X00054837Y00288199D01*
D02*
G37*
G36*
G01*
X00069913Y00288199D02*
X00069913Y00281729D01*
X00073014Y00281729D01*
X00073446Y00281742D01*
X00073850Y00281781D01*
X00074228Y00281845D01*
X00074578Y00281935D01*
X00074901Y00282051D01*
X00075196Y00282192D01*
X00075464Y00282360D01*
X00075705Y00282553D01*
X00075918Y00282771D01*
X00076103Y00283013D01*
X00076260Y00283280D01*
X00076387Y00283571D01*
X00076487Y00283886D01*
X00076558Y00284225D01*
X00076601Y00284588D01*
X00076615Y00284976D01*
X00076601Y00285364D01*
X00076558Y00285726D01*
X00076487Y00286065D01*
X00076387Y00286378D01*
X00076260Y00286667D01*
X00076103Y00286932D01*
X00075918Y00287172D01*
X00075705Y00287387D01*
X00075464Y00287577D01*
X00075196Y00287742D01*
X00074901Y00287882D01*
X00074578Y00287996D01*
X00074228Y00288085D01*
X00073850Y00288148D01*
X00073446Y00288186D01*
X00073014Y00288199D01*
X00069913Y00288199D01*
D02*
G37*
G36*
G01*
X00019356Y00101629D02*
X00019184Y00101594D01*
X00019023Y00101535D01*
X00018874Y00101453D01*
X00018737Y00101348D01*
X00018611Y00101219D01*
X00018498Y00101067D01*
X00018396Y00100891D01*
X00018306Y00100692D01*
X00018228Y00100469D01*
X00018162Y00100223D01*
X00018109Y00099953D01*
X00018067Y00099660D01*
X00018037Y00099342D01*
X00018019Y00099002D01*
X00018013Y00098638D01*
X00018019Y00098275D01*
X00018037Y00097935D01*
X00018067Y00097619D01*
X00018109Y00097326D01*
X00018162Y00097057D01*
X00018228Y00096811D01*
X00018306Y00096588D01*
X00018396Y00096389D01*
X00018498Y00096213D01*
X00018611Y00096061D01*
X00018737Y00095932D01*
X00018874Y00095827D01*
X00019023Y00095745D01*
X00019184Y00095686D01*
X00019356Y00095651D01*
X00019541Y00095640D01*
X00019727Y00095651D01*
X00019900Y00095686D01*
X00020062Y00095745D01*
X00020212Y00095827D01*
X00020350Y00095932D01*
X00020475Y00096061D01*
X00020589Y00096213D01*
X00020691Y00096389D01*
X00020781Y00096588D01*
X00020859Y00096811D01*
X00020924Y00097057D01*
X00020978Y00097326D01*
X00021020Y00097619D01*
X00021050Y00097935D01*
X00021068Y00098275D01*
X00021074Y00098638D01*
X00021068Y00099002D01*
X00021050Y00099342D01*
X00021020Y00099660D01*
X00020978Y00099953D01*
X00020924Y00100223D01*
X00020859Y00100469D01*
X00020781Y00100692D01*
X00020691Y00100891D01*
X00020589Y00101067D01*
X00020475Y00101219D01*
X00020350Y00101348D01*
X00020212Y00101453D01*
X00020062Y00101535D01*
X00019900Y00101594D01*
X00019727Y00101629D01*
X00019541Y00101641D01*
X00019356Y00101629D01*
D02*
G37*
G36*
G01*
X00032226Y00099031D02*
X00032073Y00099010D01*
X00031928Y00098974D01*
X00031793Y00098925D01*
X00031665Y00098861D01*
X00031547Y00098783D01*
X00031437Y00098690D01*
X00031335Y00098584D01*
X00031244Y00098465D01*
X00031166Y00098336D01*
X00031099Y00098196D01*
X00031044Y00098046D01*
X00031002Y00097885D01*
X00030972Y00097713D01*
X00030953Y00097531D01*
X00030947Y00097339D01*
X00030953Y00097147D01*
X00030972Y00096966D01*
X00031002Y00096796D01*
X00031044Y00096635D01*
X00031099Y00096485D01*
X00031166Y00096345D01*
X00031244Y00096215D01*
X00031335Y00096096D01*
X00031437Y00095989D01*
X00031547Y00095896D01*
X00031665Y00095818D01*
X00031793Y00095754D01*
X00031928Y00095704D01*
X00032073Y00095668D01*
X00032226Y00095647D01*
X00032388Y00095640D01*
X00032549Y00095647D01*
X00032702Y00095668D01*
X00032847Y00095704D01*
X00032983Y00095754D01*
X00033110Y00095818D01*
X00033229Y00095896D01*
X00033339Y00095989D01*
X00033440Y00096096D01*
X00033531Y00096215D01*
X00033610Y00096345D01*
X00033676Y00096485D01*
X00033731Y00096635D01*
X00033774Y00096796D01*
X00033804Y00096966D01*
X00033822Y00097147D01*
X00033828Y00097339D01*
X00033822Y00097531D01*
X00033804Y00097713D01*
X00033774Y00097885D01*
X00033731Y00098046D01*
X00033676Y00098196D01*
X00033610Y00098336D01*
X00033531Y00098465D01*
X00033440Y00098584D01*
X00033339Y00098690D01*
X00033229Y00098783D01*
X00033110Y00098861D01*
X00032983Y00098925D01*
X00032847Y00098974D01*
X00032702Y00099010D01*
X00032549Y00099031D01*
X00032388Y00099038D01*
X00032226Y00099031D01*
D02*
G37*
G36*
G01*
X00043516Y00086749D02*
X00043254Y00086745D01*
X00043013Y00086733D01*
X00042793Y00086714D01*
X00042594Y00086687D01*
X00042416Y00086652D01*
X00042259Y00086609D01*
X00042122Y00086558D01*
X00042007Y00086500D01*
X00041908Y00086432D01*
X00041823Y00086354D01*
X00041751Y00086264D01*
X00041692Y00086163D01*
X00041646Y00086051D01*
X00041613Y00085929D01*
X00041593Y00085795D01*
X00041587Y00085650D01*
X00041592Y00085534D01*
X00041607Y00085423D01*
X00041631Y00085319D01*
X00041666Y00085221D01*
X00041710Y00085129D01*
X00041764Y00085044D01*
X00041828Y00084964D01*
X00041902Y00084891D01*
X00041984Y00084825D01*
X00042074Y00084768D01*
X00042170Y00084720D01*
X00042274Y00084681D01*
X00042384Y00084650D01*
X00042502Y00084628D01*
X00042627Y00084615D01*
X00042759Y00084610D01*
X00042941Y00084619D01*
X00043114Y00084643D01*
X00043278Y00084685D01*
X00043432Y00084743D01*
X00043577Y00084817D01*
X00043713Y00084908D01*
X00043840Y00085016D01*
X00043958Y00085140D01*
X00044063Y00085278D01*
X00044155Y00085427D01*
X00044233Y00085587D01*
X00044296Y00085757D01*
X00044346Y00085939D01*
X00044381Y00086131D01*
X00044402Y00086335D01*
X00044409Y00086549D01*
X00044409Y00086749D01*
X00043516Y00086749D01*
D02*
G37*
G36*
G01*
X00082847Y00087223D02*
X00082838Y00087402D01*
X00082817Y00087573D01*
X00082784Y00087734D01*
X00082739Y00087885D01*
X00082681Y00088028D01*
X00082611Y00088161D01*
X00082529Y00088285D01*
X00082434Y00088399D01*
X00082329Y00088502D01*
X00082216Y00088592D01*
X00082095Y00088667D01*
X00081966Y00088729D01*
X00081828Y00088777D01*
X00081683Y00088811D01*
X00081529Y00088832D01*
X00081367Y00088839D01*
X00081184Y00088832D01*
X00081010Y00088812D01*
X00080845Y00088779D01*
X00080690Y00088733D01*
X00080545Y00088673D01*
X00080408Y00088600D01*
X00080281Y00088514D01*
X00080164Y00088414D01*
X00080057Y00088302D01*
X00079962Y00088180D01*
X00079879Y00088047D01*
X00079808Y00087903D01*
X00079749Y00087748D01*
X00079702Y00087582D01*
X00079667Y00087405D01*
X00079644Y00087218D01*
X00082847Y00087223D01*
D02*
G37*
M02*
